<?xml version="1.0" encoding="UTF-8"?>
<svg width="1408" height="768" viewBox="0 0 1408 768" xmlns="http://www.w3.org/2000/svg">
  <path id="13" d="M 0,768 C 0,512 0,256 0,0 C 469.333,0 938.667,0 1408,0 C 1408,256 1408,512 1408,768 C 938.667,768 469.333,768 0,768 ZM 967.688,568.929 C 964.866,558.911 955.920,548.462 942.909,539.987 C 934.361,534.419 914.695,524.992 903.229,520.966 C 895.991,518.425 894.063,517.358 894.442,516.105 C 896.517,509.235 897.276,502.842 897.246,492.500 C 897.197,475.451 894.659,466.629 881.360,437.262 C 875.441,424.193 866.914,404.733 862.410,394.017 C 854.596,375.427 854.307,374.473 856.110,373.210 C 858.779,371.341 858.568,364.893 855.524,355.302 C 852.419,345.517 847.501,338.171 840.681,333.133 C 836.779,330.251 835.075,328.202 834.219,325.360 C 831.758,317.191 822.936,310.074 815.207,310.022 C 812.931,310.007 810.152,308.700 806.207,305.790 C 803.068,303.475 800.380,301.517 800.233,301.440 C 800.086,301.363 801.564,298.645 803.518,295.400 C 808.114,287.768 810,281.243 810,272.978 C 810,264.513 808.340,258.174 796.657,222 C 791.417,205.775 785.057,185.075 782.524,176 C 775.352,150.304 767.984,137.295 753.746,125.189 C 746.556,119.075 732.439,111.776 723,109.291 C 713.985,106.917 693.836,106.965 685.058,109.381 C 670.741,113.321 658.401,120.655 648.457,131.133 C 637.277,142.912 632.860,151.449 626.475,173.621 C 619.881,196.519 615.801,209.727 607.871,233.851 C 600.327,256.800 598.044,265.881 598.017,273.040 C 597.992,279.522 600.593,288.616 604.099,294.315 C 605.758,297.012 606.977,299.313 606.808,299.431 C 606.639,299.548 604.277,300.470 601.559,301.478 C 595.146,303.857 588.547,310.003 586.418,315.577 C 584.950,319.421 584.196,320.139 580.621,321.102 C 568.274,324.427 559.430,334.203 557.425,346.745 C 556.466,352.744 557.506,356 560.382,356 C 562.587,356 561.709,358.316 545.496,395.250 C 536.020,416.837 525.712,440.125 522.591,447 C 514.206,465.469 511.914,474 511.276,489.125 C 510.863,498.926 511.127,503.473 512.458,509.455 C 513.401,513.693 514.021,517.311 513.836,517.494 C 513.651,517.677 508.775,519.611 503,521.792 C 470.775,533.963 450.052,548.255 442.992,563.179 C 436.796,576.276 439.802,589.649 451.645,601.684 C 473.104,623.491 524.778,642.572 589,652.404 C 649.709,661.698 719.130,663.514 780.500,657.414 C 864.703,649.044 933.114,627.166 957.522,600.803 C 967.017,590.548 970.607,579.292 967.688,568.929 Z" fill="#FFFFFF" stroke="none" />
  <path id="2" d="M 967.688,568.929 C 970.607,579.292 967.017,590.548 957.522,600.803 C 933.114,627.166 864.703,649.044 780.500,657.414 C 719.130,663.514 649.709,661.698 589,652.404 C 524.778,642.572 473.104,623.491 451.645,601.684 C 439.802,589.649 436.796,576.276 442.992,563.179 C 450.052,548.255 470.775,533.963 503,521.792 C 508.775,519.611 513.651,517.677 513.836,517.494 C 514.021,517.311 513.401,513.693 512.458,509.455 C 511.127,503.473 510.863,498.926 511.276,489.125 C 511.914,474 514.206,465.469 522.591,447 C 525.712,440.125 536.020,416.837 545.496,395.250 C 561.709,358.316 562.587,356 560.382,356 C 557.506,356 556.466,352.744 557.425,346.745 C 559.430,334.203 568.274,324.427 580.621,321.102 C 584.196,320.139 584.950,319.421 586.418,315.577 C 588.547,310.003 595.146,303.857 601.559,301.478 C 604.277,300.470 606.639,299.548 606.808,299.431 C 606.977,299.313 605.758,297.012 604.099,294.315 C 600.593,288.616 597.992,279.522 598.017,273.040 C 598.044,265.881 600.327,256.800 607.871,233.851 C 615.801,209.727 619.881,196.519 626.475,173.621 C 632.860,151.449 637.277,142.912 648.457,131.133 C 658.401,120.655 670.741,113.321 685.058,109.381 C 693.836,106.965 713.985,106.917 723,109.291 C 732.439,111.776 746.556,119.075 753.746,125.189 C 767.984,137.295 775.352,150.304 782.524,176 C 785.057,185.075 791.417,205.775 796.657,222 C 808.340,258.174 810,264.513 810,272.978 C 810,281.243 808.114,287.768 803.518,295.400 C 801.564,298.645 800.086,301.363 800.233,301.440 C 800.380,301.517 803.068,303.475 806.207,305.790 C 810.152,308.700 812.931,310.007 815.207,310.022 C 822.936,310.074 831.758,317.191 834.219,325.360 C 835.075,328.202 836.779,330.251 840.681,333.133 C 847.501,338.171 852.419,345.517 855.524,355.302 C 858.568,364.893 858.779,371.341 856.110,373.210 C 854.307,374.473 854.596,375.427 862.410,394.017 C 866.914,404.733 875.441,424.193 881.360,437.262 C 894.659,466.629 897.197,475.451 897.246,492.500 C 897.276,502.842 896.517,509.235 894.442,516.105 C 894.063,517.358 895.991,518.425 903.229,520.966 C 914.695,524.992 934.361,534.419 942.909,539.987 C 955.920,548.462 964.866,558.911 967.688,568.929 ZM 575,352 C 573.844,354.083 572.688,356.167 571.532,358.250 C 569.624,361.688 563.494,375.075 557.909,388 C 552.324,400.925 542.460,423.200 535.988,437.500 C 521.013,470.590 519.560,475.443 519.526,492.500 C 519.509,500.811 520.010,507.256 520.913,510.368 C 521.384,511.991 521.855,513.613 522.326,515.236 C 526.022,514.232 529.717,513.228 533.413,512.224 C 539.511,510.567 545.960,508.903 547.744,508.527 C 549.528,508.151 551.441,507.204 553,505 C 553.444,505.181 553.888,505.362 554.332,505.543 C 555.065,505.841 557.540,505.616 564,504 C 564,504.137 564,504.273 564,504.410 C 564,504.635 571.537,503.532 580.750,501.960 C 589.963,500.388 600.550,498.790 604.278,498.410 C 608.006,498.030 611.269,497.331 612,496 C 615,496 618,496 621,496 C 624.917,495.665 628.833,495.331 632.750,494.996 C 639.213,494.444 647.425,493.707 651,493.359 C 654.575,493.011 671.338,492.337 719,491 C 718.375,492.448 717.750,493.897 717.125,495.345 C 716.094,497.735 714.518,499.985 712,501 C 706.917,500.834 701.833,500.668 696.750,500.502 C 673.188,499.733 637.258,502.211 601.500,507.071 C 522.398,517.821 460.129,542.906 449.521,568.295 C 442.169,585.892 460.295,604.742 500,620.790 C 544.502,638.777 602.501,649.072 676.750,652.165 C 782.639,656.576 893.561,636.590 939.693,604.787 C 953.457,595.299 959.937,586.170 959.978,576.210 C 960.033,563.076 946.478,549.742 920.537,537.412 C 889.816,522.809 848.857,512.561 791,505 C 790.965,504.750 790.931,504.500 790.896,504.250 C 790.626,502.306 797.330,497.704 800,498 C 802.917,498.346 805.833,498.691 808.750,499.037 C 813.562,499.607 822.900,501.021 829.500,502.178 C 836.100,503.335 842.062,504.219 844,504 C 847.667,504.667 851.333,505.333 855,506 C 855.385,506.318 855.769,506.636 856.154,506.954 C 856.789,507.479 858.701,508.188 860.404,508.529 C 862.107,508.870 868.397,510.509 874.382,512.170 C 883.130,514.598 885.424,514.931 886.082,513.867 C 888.022,510.729 889.266,498.676 888.717,488.332 C 887.987,474.559 885.607,466.268 877.297,448.533 C 873.680,440.815 865.384,422.237 847,380 C 848.682,378.221 850.365,376.441 852.047,374.662 C 853.729,372.883 855.412,371.103 857.094,369.324 C 856.591,366.911 856.088,364.497 855.585,362.084 C 852.858,349.004 846.678,338.978 837.946,333.466 C 835.398,331.858 834.022,330.016 833.121,327.010 C 832.428,324.697 829.985,320.768 827.691,318.280 C 824.049,314.329 822.631,313.554 816.510,312.161 C 811.529,311.028 808.227,309.545 805.102,307.041 C 800.996,303.751 800.571,303.620 798.687,305.077 C 796.721,306.598 796.788,306.723 801.334,309.988 C 808.178,314.903 807.858,317.356 799.250,325.929 C 792.748,332.405 786.317,336.309 777.274,339.272 C 772.291,340.905 772.167,343.537 777.080,343.401 C 785.696,343.163 801.453,332.717 807.601,323.167 C 811.239,317.517 811.758,317.108 815.346,317.056 C 820.662,316.979 824.733,320.176 827.772,326.814 C 829.737,331.106 830.048,332.694 829.189,334.069 C 827.702,336.450 829.957,338.300 833.318,337.456 C 838.933,336.047 849.501,351.765 850.691,363.295 C 850.877,365.100 851.064,366.906 851.250,368.711 C 849.315,370.097 847.380,371.482 845.445,372.868 C 833.086,381.718 807.479,393.203 789.500,397.960 C 778.521,400.865 757.936,403.976 749.613,403.989 C 739.208,404.005 718.963,400.301 705.336,395.889 C 692.105,391.605 677.038,384.528 655.484,372.473 C 616.196,350.500 593.727,342.510 578.484,345.090 C 575.743,345.554 571.475,346.248 569,346.633 C 567.500,346.866 566,347.100 564.500,347.333 C 564.843,345.861 565.185,344.389 565.528,342.917 C 566.812,337.402 571.577,331.926 577.762,328.859 C 582.035,326.740 583.778,326.517 595.500,326.586 C 606.636,326.652 609.776,327.051 617.398,329.370 C 636.624,335.219 651.854,342.641 673.085,356.507 C 700.254,374.250 724.828,382.925 748.660,383.182 C 758.314,383.286 760.780,382.475 759.664,379.567 C 759.171,378.283 757.181,378 748.642,378 C 724.803,378 701.764,369.920 674,351.821 C 657.049,340.771 649.002,336.296 637.142,331.326 C 624.296,325.942 610.062,322.070 600.250,321.289 C 593.360,320.740 593,320.589 593,318.238 C 593,314.429 599.672,308.363 605.467,306.904 C 609.794,305.815 610.169,305.501 609.135,303.845 C 607.501,301.229 604.290,301.566 598.341,304.978 C 592.821,308.144 589.395,312.166 587.484,317.724 C 586.432,320.785 585.555,321.427 579.778,323.371 C 576.193,324.578 571.636,326.803 569.652,328.316 C 565.352,331.596 560.761,339.050 560.370,343.386 C 560.216,345.099 559.799,347.922 559.444,349.661 C 558.516,354.207 561.592,355.780 567.099,353.577 C 569.267,352.710 571.931,352 575,352 ZM 568.584,340 C 565.674,345.117 565.396,346.446 567.399,345.677 C 568.168,345.382 571.570,344.595 574.958,343.928 C 592.572,340.463 615.956,348.129 654.661,370.056 C 683.464,386.373 703.201,394.696 723.827,399.220 C 736.729,402.050 761.272,402.259 774.500,399.651 C 799.900,394.643 824.504,384.732 844.250,371.554 C 847.412,369.443 850,367.578 850,367.408 C 850,364.848 847.193,355.390 845.341,351.714 C 842.910,346.887 836.464,339 834.950,339 C 834.500,339 830.854,341.465 826.849,344.478 C 817.872,351.232 808.010,356.116 796.380,359.570 C 784.411,363.124 763.090,364.025 749,361.570 C 720.862,356.668 693.806,342.760 661.035,316.351 C 642.061,301.061 634.746,291.501 631.508,277.769 C 628.775,266.179 629.899,255.178 636.403,229.822 C 647.917,184.936 656.679,169.426 676,159.725 C 694.804,150.284 717.474,150.956 735.620,161.491 C 743.493,166.062 752.994,176.437 757.148,185 C 765.108,201.405 776.769,244.531 777.757,261.216 C 779.076,283.479 770.783,298.321 746.555,317.062 C 741.300,321.127 737,324.850 737,325.335 C 737,327.406 757.808,319.444 770.573,312.488 C 785.389,304.415 793.482,297.047 798.742,286.848 C 801.176,282.128 801.491,280.444 801.429,272.500 C 801.363,264.062 800.880,262.049 793.701,240.282 C 784.750,213.142 777.333,189.061 773.044,173.215 C 771.364,167.008 768.468,158.909 766.608,155.215 C 754.074,130.326 731.425,115.789 705,115.672 C 692.484,115.617 685.489,117.202 674,122.697 C 665.801,126.619 663.263,128.491 655.463,136.371 C 643.900,148.052 640.099,155.593 632.974,181 C 630.120,191.175 624.507,209.625 620.500,222 C 606.427,265.463 605.421,269.675 607.055,278.290 C 608.392,285.340 611.328,291.036 616.710,297.022 C 622.509,303.472 627.957,307.257 640.468,313.530 C 649.797,318.207 650.500,318.768 650.500,321.530 C 650.500,324.036 650.065,324.550 647.716,324.820 C 644.274,325.215 632.816,319.679 621.763,312.281 C 619.081,310.486 616.398,308.690 613.716,306.895 C 612.038,307.255 610.360,307.615 608.682,307.975 C 602.398,309.323 598.015,311.986 595.751,315.833 C 595.168,316.823 594.586,317.814 594.003,318.804 C 596.086,319.029 598.168,319.254 600.251,319.479 C 620.851,321.706 643.364,330.418 667.122,345.356 C 688.553,358.831 695.759,362.920 705,366.848 C 719.282,372.919 732.283,375.960 746.985,376.669 C 759.297,377.263 762,377.962 762,380.551 C 762,383.744 758.942,385 751.179,384.994 C 725.759,384.974 699.873,376.045 671,357.335 C 640.640,337.661 615.736,327.868 595.500,327.645 C 581.244,327.488 573.742,330.931 568.584,340 ZM 639.474,255 C 638.776,259.125 638.167,263.625 638.120,265 C 637.963,269.613 640.821,280.713 643.561,286.131 C 646.578,292.096 661.186,307.432 663.222,306.770 C 666.398,305.738 670,293.833 670,284.372 C 670,279.205 669.681,278.470 665.150,273.171 C 656.230,262.740 649.640,249.912 646.952,237.750 C 646.253,234.587 645.348,232 644.941,232 C 644.132,232 641.474,243.181 639.474,255 ZM 648.428,221.560 C 646.688,227.184 646.783,230.532 648.911,238.724 C 652.178,251.300 658.103,262.281 667.828,273.779 C 669.316,275.539 670.804,277.297 672.292,279.057 C 672.086,281.723 671.881,284.389 671.675,287.055 C 671.293,292.005 670.109,297.402 668.567,301.219 C 666.729,305.770 666.361,307.729 667.161,308.693 C 667.757,309.412 668.660,310 669.168,310 C 670.863,310 674.909,299.659 676.099,292.285 C 676.745,288.278 677.713,285 678.248,285 C 678.783,285 682.636,286.688 686.809,288.750 C 693.984,292.296 694.918,292.500 704,292.500 C 713.082,292.500 714.016,292.296 721.191,288.750 C 725.364,286.688 729.258,285 729.844,285 C 730.430,285 731.170,286.688 731.489,288.750 C 733.298,300.454 736.664,309 739.464,309 C 741.927,309 742.045,307.357 739.928,302.571 C 738.795,300.009 737.412,293.690 736.847,288.486 C 736.505,285.340 736.164,282.193 735.822,279.047 C 737.483,277.122 739.142,275.199 740.803,273.274 C 754.858,256.985 763.107,235.873 759.972,224.212 C 758.240,217.771 757,216.728 757,221.712 C 757,228.377 754.329,240.396 751.188,247.873 C 744.766,263.157 731.347,278.623 719.477,284.418 C 712.087,288.026 700.917,289.040 694.231,286.709 C 688.957,284.871 679.508,279.262 676.639,276.267 C 675.463,275.039 673.938,274.026 673.250,274.017 C 672.562,274.008 672,273.492 672,272.872 C 672,272.252 669.803,268.764 667.118,265.122 C 658.246,253.087 653.085,240.051 651.432,225.500 C 650.537,217.623 649.903,216.792 648.428,221.560 ZM 653.441,206.388 C 651.207,209.578 653.154,210.183 659.084,208.143 C 677.311,201.872 692.522,189.878 699.969,175.907 C 702.351,171.438 703.426,170.299 704.900,170.684 C 705.937,170.955 707.043,172.375 707.358,173.839 C 708.323,178.329 717.613,189.491 725.251,195.339 C 735.474,203.166 754.019,211.397 755.614,208.816 C 756.665,207.115 752.910,204.495 744.500,201.060 C 728.903,194.689 717.907,184.670 710.825,170.379 C 707.063,162.787 706.404,162 703.805,162 C 701.954,162 700.739,162.620 700.377,163.750 C 700.069,164.712 698.292,168.694 696.429,172.598 C 690.473,185.078 673.725,198.783 659.181,203.081 C 656.806,203.783 654.223,205.271 653.441,206.388 ZM 658.643,209.976 C 656.357,210.729 654.073,211.481 651.787,212.234 C 652.011,214.778 652.236,217.323 652.460,219.867 C 654.436,242.285 662.343,259.440 677.299,273.753 C 684.356,280.507 693.482,285.500 700.765,286.592 C 710.816,288.099 726.414,280.386 735.562,269.385 C 748.638,253.660 754.111,240.415 755.614,220.863 C 755.832,218.032 756.049,215.200 756.267,212.369 C 753.297,211.306 750.326,210.244 747.355,209.181 C 742.454,207.428 735.542,204.308 731.996,202.247 C 723.938,197.564 711.257,185.187 707.411,178.251 C 705.810,175.364 704.246,173.002 703.935,173.001 C 703.624,173 702.566,174.687 701.583,176.748 C 698.794,182.597 690.370,192.389 684.154,197.007 C 677.215,202.162 667.729,206.984 658.643,209.976 ZM 656.461,193.627 C 654.571,197.957 653.019,201.846 653.012,202.269 C 652.974,204.669 668.835,197.720 677.487,191.546 C 685.848,185.580 691.395,179.101 695.566,170.429 C 697.454,166.503 699,162.937 699,162.506 C 699,160.773 688.205,163.155 681.385,166.394 C 669.354,172.108 662.665,179.416 656.461,193.627 ZM 672.964,307.952 C 671.932,309.903 671.068,312.027 671.044,312.670 C 670.997,313.919 686.393,325.601 691.713,328.352 C 694.041,329.556 697.557,330 704.755,330 C 715.742,330 717.271,329.352 730.434,319.115 C 733.697,316.577 736.747,314.240 737.212,313.923 C 737.677,313.606 736.635,310.307 734.897,306.593 C 733.159,302.879 731.269,296.838 730.697,293.170 C 730.351,290.947 730.004,288.723 729.658,286.500 C 727.132,287.763 724.605,289.027 722.079,290.290 C 709.023,296.819 696.611,296.380 683.250,288.916 C 681.500,287.938 679.750,286.961 678,285.983 C 678,287.021 678,288.059 678,289.097 C 678,293.338 675.253,303.624 672.964,307.952 ZM 711.919,162 C 710.951,162 709.984,162 709.016,162 C 709.571,163.417 710.126,164.833 710.681,166.250 C 714.691,176.489 723.814,187.345 733.748,193.701 C 739.351,197.286 753.857,203.477 754.693,202.641 C 755.427,201.907 751.289,191.226 748.253,186.015 C 744.703,179.923 737.823,172.737 731.900,168.936 C 726.525,165.487 716.480,162 711.919,162 ZM 710.621,338.712 C 708.467,340.866 735.766,350.913 751,353.573 C 763.143,355.693 781.063,355.038 792.500,352.057 C 802.788,349.375 817.137,342.254 823.443,336.701 C 825.091,335.250 826.739,333.799 828.387,332.348 C 827.935,331.207 827.484,330.065 827.032,328.924 C 825.371,324.726 822.379,321.267 818.800,319.405 C 814.569,317.204 813.426,317.661 810.063,322.902 C 804.056,332.263 792.983,340.633 781.546,344.458 C 775.394,346.516 772,345.856 772,342.603 C 772,339.728 773.077,338.858 779.500,336.542 C 788.897,333.154 799.193,325.661 803.069,319.389 C 803.792,318.220 804.514,317.050 805.237,315.881 C 804.513,315.110 803.787,314.339 803.063,313.568 C 801.868,312.296 799.183,310.485 797.097,309.544 C 795.833,308.974 794.569,308.404 793.305,307.834 C 790.821,309.520 788.336,311.205 785.852,312.891 C 765.942,326.400 733.695,338 716.056,338 C 713.458,338 711.013,338.320 710.621,338.712 ZM 742.561,274 C 740.975,275.833 739.389,277.667 737.803,279.500 C 737.966,282.014 738.130,284.527 738.293,287.041 C 738.811,295.027 742.461,306.012 744.856,306.794 C 747.054,307.512 762.283,291.231 765.394,284.837 C 771.032,273.249 771.163,263.224 765.967,241.090 C 763.952,232.506 762,229.182 762,234.335 C 762,236.944 759.058,246.365 756.059,253.361 C 753.396,259.574 748.301,267.364 742.561,274 Z" fill="#1B2F58" stroke="none" />
  <path id="13" d="M 791,505 C 848.857,512.561 889.816,522.809 920.537,537.412 C 946.478,549.742 960.033,563.076 959.978,576.210 C 959.937,586.170 953.457,595.299 939.693,604.787 C 893.561,636.590 782.639,656.576 676.750,652.165 C 602.501,649.072 544.502,638.777 500,620.790 C 460.295,604.742 442.169,585.892 449.521,568.295 C 460.129,542.906 522.398,517.821 601.500,507.071 C 637.258,502.211 673.188,499.733 696.750,500.502 C 701.833,500.668 706.917,500.834 712,501 C 711.797,502.440 711.593,503.879 711.390,505.319 C 710.830,509.286 711.040,509.856 713.967,512.319 C 715.720,513.794 718.360,515 719.834,515 C 722.404,515 722.500,515.189 722.151,519.572 C 721.858,523.258 722.226,524.612 724.053,526.557 C 727.147,529.850 731.922,530.605 736.354,528.502 C 739.608,526.958 740.091,526.950 742.174,528.409 C 746.215,531.240 751.483,530.461 756.018,526.364 C 759.977,522.787 760.076,522.759 762.101,524.592 C 763.364,525.735 765.658,526.455 768.038,526.455 C 772.590,526.455 776.089,523.583 781.994,515 C 784.075,511.975 786.953,508.487 791,505 ZM 550.270,550.270 C 531.235,569.305 523,578.199 523,579.723 C 523,583.564 525.177,586.856 528.889,588.627 C 530.875,589.575 541.275,593.895 552,598.228 C 575.041,607.536 578.308,608.010 583.712,602.833 C 585.626,601 591.311,594.618 596.346,588.650 C 601.381,582.682 605.627,578.420 605.781,579.179 C 605.935,579.938 603.125,586.846 599.535,594.530 C 595.945,602.214 593.006,609.452 593.004,610.615 C 592.999,613.135 596.352,617.665 598.776,618.415 C 602.689,619.625 646.779,626.996 650.115,626.998 C 656.457,627.002 658.255,624.547 664.029,608.011 C 669.362,592.737 671.766,589.012 670.652,597.750 C 670.319,600.362 669.750,607.253 669.388,613.063 C 668.246,631.382 667.842,631.183 705.432,630.794 C 732.162,630.517 733.920,630.385 736.011,628.500 C 739.610,625.255 739.894,623.030 738.571,608.409 C 737.879,600.759 737.518,594.123 737.769,593.663 C 737.921,593.384 738.074,593.105 738.226,592.826 C 738.480,593.105 738.734,593.384 738.988,593.663 C 739.407,594.123 741.679,600.350 744.036,607.500 C 749.072,622.779 752.210,627 758.533,627 C 763.404,627 807.776,619.191 810.163,617.913 C 813.240,616.266 815.300,612.250 814.674,609.118 C 814.360,607.546 811.418,600.463 808.137,593.379 C 804.295,585.085 802.640,580.500 803.488,580.500 C 804.212,580.500 809.120,585.551 814.395,591.723 C 825.294,604.476 827.573,606.277 832.783,606.263 C 837.483,606.250 879.594,589.441 882.750,586.318 C 884.294,584.789 885,582.905 885,580.308 C 885,576.678 883.914,575.459 858.250,550.293 C 842.107,534.464 830.290,523.649 828.449,523.019 C 826.173,522.241 824.267,522.332 820.949,523.378 C 816.465,524.791 784.215,537.194 780.500,538.934 C 779.400,539.449 767.700,541.705 754.500,543.948 C 730.558,548.016 730.436,548.026 704,548.014 C 677.584,548.002 677.424,547.989 653.500,543.909 C 640.300,541.658 628.150,539.184 626.500,538.411 C 624.850,537.638 615.215,533.855 605.089,530.003 C 592.042,525.040 585.348,523 582.110,523 C 580.587,523 579.064,523 577.541,523 C 568.451,532.090 559.360,541.180 550.270,550.270 Z" fill="#FFFFFF" stroke="none" />
  <path id="34" d="M 550.270,550.270 C 559.360,541.180 568.451,532.090 577.541,523 C 579.064,523 580.587,523 582.110,523 C 585.348,523 592.042,525.040 605.089,530.003 C 615.215,533.855 624.850,537.638 626.500,538.411 C 628.150,539.184 640.300,541.658 653.500,543.909 C 677.424,547.989 677.584,548.002 704,548.014 C 730.436,548.026 730.558,548.016 754.500,543.948 C 767.700,541.705 779.400,539.449 780.500,538.934 C 784.215,537.194 816.465,524.791 820.949,523.378 C 824.267,522.332 826.173,522.241 828.449,523.019 C 830.290,523.649 842.107,534.464 858.250,550.293 C 883.914,575.459 885,576.678 885,580.308 C 885,582.905 884.294,584.789 882.750,586.318 C 879.594,589.441 837.483,606.250 832.783,606.263 C 827.573,606.277 825.294,604.476 814.395,591.723 C 809.120,585.551 804.212,580.500 803.488,580.500 C 802.640,580.500 804.295,585.085 808.137,593.379 C 811.418,600.463 814.360,607.546 814.674,609.118 C 815.300,612.250 813.240,616.266 810.163,617.913 C 807.776,619.191 763.404,627 758.533,627 C 752.210,627 749.072,622.779 744.036,607.500 C 741.679,600.350 739.407,594.123 738.988,593.663 C 738.734,593.384 738.480,593.105 738.226,592.826 C 738.074,593.105 737.921,593.384 737.769,593.663 C 737.518,594.123 737.879,600.759 738.571,608.409 C 739.894,623.030 739.610,625.255 736.011,628.500 C 733.920,630.385 732.162,630.517 705.432,630.794 C 667.842,631.183 668.246,631.382 669.388,613.063 C 669.750,607.253 670.319,600.362 670.652,597.750 C 671.766,589.012 669.362,592.737 664.029,608.011 C 658.255,624.547 656.457,627.002 650.115,626.998 C 646.779,626.996 602.689,619.625 598.776,618.415 C 596.352,617.665 592.999,613.135 593.004,610.615 C 593.006,609.452 595.945,602.214 599.535,594.530 C 603.125,586.846 605.935,579.938 605.781,579.179 C 605.627,578.420 601.381,582.682 596.346,588.650 C 591.311,594.618 585.626,601 583.712,602.833 C 578.308,608.010 575.041,607.536 552,598.228 C 541.275,593.895 530.875,589.575 528.889,588.627 C 525.177,586.856 523,583.564 523,579.723 C 523,578.199 531.235,569.305 550.270,550.270 ZM 620.363,544.357 C 619.339,543.990 611.017,540.835 601.871,537.345 C 592.725,533.855 584.196,531 582.918,531 C 581.218,531 574.066,537.508 556.297,555.223 C 534.369,577.084 530.074,582 532.898,582 C 533.392,582 543.022,585.825 554.298,590.500 C 565.574,595.175 575.272,599 575.850,599 C 576.883,599 589.890,584.141 609.553,560.500 C 623.521,543.705 622.559,545.143 620.363,544.357 ZM 672.588,555 C 672.361,555 662.837,553.403 651.423,551.451 C 634.494,548.556 630.452,548.141 629.490,549.201 C 627.991,550.851 602,608.083 602,609.733 C 602,611.230 601.756,611.174 626.605,615.500 C 645.218,618.741 652,619.574 652,618.622 C 652,618.414 656.721,604.577 662.490,587.872 C 672.249,559.616 673.667,555 672.588,555 ZM 728.970,587.500 C 727.446,570.450 726.154,556.388 726.099,556.250 C 725.759,555.391 683.020,556.158 682.480,557.032 C 681.830,558.084 677.066,612.414 677.023,619.266 C 677.015,620.521 677.008,621.777 677,623.032 C 686.083,622.943 695.167,622.855 704.250,622.766 C 730.699,622.508 731.503,622.441 731.620,620.500 C 731.686,619.400 730.494,604.550 728.970,587.500 ZM 793.362,580 C 785.930,563.775 779.308,549.941 778.647,549.258 C 777.691,548.271 773.158,548.736 756.533,551.530 C 745.032,553.463 735.412,555.255 735.155,555.512 C 734.522,556.145 755.738,617.138 757.047,618.447 C 757.763,619.163 765.113,618.303 780.792,615.671 C 805.473,611.527 807.031,611.200 806.938,610.183 C 806.904,609.808 800.794,596.225 793.362,580 ZM 851.643,555.162 C 843.199,546.741 834.754,538.322 826.310,529.901 C 824.008,530.763 821.707,531.624 819.405,532.486 C 789.431,543.708 785.971,545.259 787.250,546.898 C 789.380,549.629 803.764,566.792 817.217,582.656 C 824.286,590.992 830.763,598.079 831.610,598.404 C 832.974,598.928 874.376,582.899 876.238,581.127 C 876.644,580.741 865.576,569.056 851.643,555.162 Z" fill="#4B1F53" stroke="none" />
  <path id="13" d="M 553,505 C 551.441,507.204 549.528,508.151 547.744,508.527 C 545.960,508.903 539.511,510.567 533.413,512.224 C 529.717,513.228 526.022,514.232 522.326,515.236 C 521.855,513.613 521.384,511.991 520.913,510.368 C 520.010,507.256 519.509,500.811 519.526,492.500 C 519.560,475.443 521.013,470.590 535.988,437.500 C 542.460,423.200 552.324,400.925 557.909,388 C 563.494,375.075 569.624,361.688 571.532,358.250 C 572.688,356.167 573.844,354.083 575,352 C 578.250,351.944 581.500,351.887 584.750,351.831 C 593.328,351.682 595.614,352.041 603.774,354.820 C 615.566,358.835 629.512,365.429 648.500,375.966 C 680.303,393.615 696.705,400.923 714.732,405.480 C 735.924,410.837 757.433,411.190 780.323,406.555 C 803.659,401.830 820.286,395.208 847,380 C 865.384,422.237 873.680,440.815 877.297,448.533 C 885.607,466.268 887.987,474.559 888.717,488.332 C 889.266,498.676 888.022,510.729 886.082,513.867 C 885.424,514.931 883.130,514.598 874.382,512.170 C 868.397,510.509 862.107,508.870 860.404,508.529 C 858.701,508.188 856.789,507.479 856.154,506.954 C 855.769,506.636 855.385,506.318 855,506 C 854.211,504.750 853.422,503.500 852.633,502.250 C 848.555,495.790 846.306,490.801 840.623,475.605 C 832.449,453.749 827.685,446.776 817.059,441.112 C 813.708,439.326 811.225,437.445 811.542,436.932 C 812.527,435.339 821.416,435.906 827.327,437.940 C 834.315,440.344 839.991,444.244 846.581,451.164 C 853.135,458.047 856.957,463.119 860.962,470.250 C 864.379,476.334 867.342,477.702 870.048,474.442 C 871.124,473.146 870.960,472.098 869.073,468.214 C 863.170,456.063 851.903,442.772 841.771,436.006 C 825.436,425.098 805.138,425.457 792.753,436.873 C 789.273,440.081 786.867,441.247 780.225,442.943 C 767.927,446.083 758.517,449.664 748.500,455.019 C 743.550,457.665 733.902,461.668 727.059,463.915 C 720.216,466.162 714.260,468.563 713.824,469.250 C 713.388,469.937 713.023,472.008 713.015,473.850 C 713,477.179 716.722,481.932 721.360,484.506 C 723.089,485.465 723.076,485.638 719,491 C 671.338,492.337 654.575,493.011 651,493.359 C 647.425,493.707 639.213,494.444 632.750,494.996 C 628.833,495.331 624.917,495.665 621,496 C 621.807,493.583 622.614,491.167 623.421,488.750 C 624.753,484.763 626.405,476.953 627.092,471.397 C 627.508,468.029 627.925,464.663 628.341,461.295 C 629.736,460.413 631.130,459.529 632.525,458.647 C 638.743,454.713 641.209,455.166 653.538,462.500 C 666.231,470.050 670.482,470.827 675.066,466.436 C 675.958,465.581 676.850,464.728 677.742,463.873 C 678.868,464.560 679.995,465.246 681.121,465.933 C 685.943,468.873 691.104,468.624 695.101,465.261 C 697.736,463.044 699.353,462.520 703.597,462.511 C 710.446,462.496 714,459.522 714,453.803 C 714,450.704 713.222,449.111 710,445.616 C 705.353,440.574 705.008,439 708.550,439 C 711.879,439 716.670,436.485 717.970,434.055 C 719.376,431.429 719.266,426.740 717.750,424.700 C 716.181,422.588 686.383,408.816 677.339,406.023 C 667.510,402.987 657.853,402.405 650.139,404.384 C 646.641,405.281 636.838,408.912 628.354,412.451 C 623.212,414.596 618.071,416.741 612.929,418.886 C 611.527,418.391 610.126,417.898 608.724,417.403 C 585.248,409.120 559.421,424.005 543,455.284 C 539.181,462.558 539.470,465.500 544.004,465.500 C 545.827,465.500 547.427,463.592 551.895,456.094 C 562.720,437.926 576.580,426.102 589.522,423.996 C 597.636,422.675 598.942,423.651 593.598,427.040 C 588.371,430.355 581.937,438.179 578.051,445.948 C 576.523,449.002 573.147,458.250 570.547,466.500 C 564.801,484.733 559.573,496.206 553,505 Z" fill="#FFFFFF" stroke="none" />
  <path id="13" d="M 568.584,340 C 573.742,330.931 581.244,327.488 595.500,327.645 C 615.736,327.868 640.640,337.661 671,357.335 C 699.873,376.045 725.759,384.974 751.179,384.994 C 758.942,385 762,383.744 762,380.551 C 762,377.962 759.297,377.263 746.985,376.669 C 732.283,375.960 719.282,372.919 705,366.848 C 695.759,362.920 688.553,358.831 667.122,345.356 C 643.364,330.418 620.851,321.706 600.251,319.479 C 598.168,319.254 596.086,319.029 594.003,318.804 C 594.586,317.814 595.168,316.823 595.751,315.833 C 598.015,311.986 602.398,309.323 608.682,307.975 C 610.360,307.615 612.038,307.255 613.716,306.895 C 616.398,308.690 619.081,310.486 621.763,312.281 C 632.816,319.679 644.274,325.215 647.716,324.820 C 650.065,324.550 650.500,324.036 650.500,321.530 C 650.500,318.768 649.797,318.207 640.468,313.530 C 627.957,307.257 622.509,303.472 616.710,297.022 C 611.328,291.036 608.392,285.340 607.055,278.290 C 605.421,269.675 606.427,265.463 620.500,222 C 624.507,209.625 630.120,191.175 632.974,181 C 640.099,155.593 643.900,148.052 655.463,136.371 C 663.263,128.491 665.801,126.619 674,122.697 C 685.489,117.202 692.484,115.617 705,115.672 C 731.425,115.789 754.074,130.326 766.608,155.215 C 768.468,158.909 771.364,167.008 773.044,173.215 C 777.333,189.061 784.750,213.142 793.701,240.282 C 800.880,262.049 801.363,264.062 801.429,272.500 C 801.491,280.444 801.176,282.128 798.742,286.848 C 793.482,297.047 785.389,304.415 770.573,312.488 C 757.808,319.444 737,327.406 737,325.335 C 737,324.850 741.300,321.127 746.555,317.062 C 770.783,298.321 779.076,283.479 777.757,261.216 C 776.769,244.531 765.108,201.405 757.148,185 C 752.994,176.437 743.493,166.062 735.620,161.491 C 717.474,150.956 694.804,150.284 676,159.725 C 656.679,169.426 647.917,184.936 636.403,229.822 C 629.899,255.178 628.775,266.179 631.508,277.769 C 634.746,291.501 642.061,301.061 661.035,316.351 C 693.806,342.760 720.862,356.668 749,361.570 C 763.090,364.025 784.411,363.124 796.380,359.570 C 808.010,356.116 817.872,351.232 826.849,344.478 C 830.854,341.465 834.500,339 834.950,339 C 836.464,339 842.910,346.887 845.341,351.714 C 847.193,355.390 850,364.848 850,367.408 C 850,367.578 847.412,369.443 844.250,371.554 C 824.504,384.732 799.900,394.643 774.500,399.651 C 761.272,402.259 736.729,402.050 723.827,399.220 C 703.201,394.696 683.464,386.373 654.661,370.056 C 615.956,348.129 592.572,340.463 574.958,343.928 C 571.570,344.595 568.168,345.382 567.399,345.677 C 565.396,346.446 565.674,345.117 568.584,340 Z" fill="#FFFFFF" stroke="none" />
  <path id="13" d="M 658.643,209.976 C 667.729,206.984 677.215,202.162 684.154,197.007 C 690.370,192.389 698.794,182.597 701.583,176.748 C 702.566,174.687 703.624,173 703.935,173.001 C 704.246,173.002 705.810,175.364 707.411,178.251 C 711.257,185.187 723.938,197.564 731.996,202.247 C 735.542,204.308 742.454,207.428 747.355,209.181 C 750.326,210.244 753.297,211.306 756.267,212.369 C 756.049,215.200 755.832,218.032 755.614,220.863 C 754.111,240.415 748.638,253.660 735.562,269.385 C 726.414,280.386 710.816,288.099 700.765,286.592 C 693.482,285.500 684.356,280.507 677.299,273.753 C 662.343,259.440 654.436,242.285 652.460,219.867 C 652.236,217.323 652.011,214.778 651.787,212.234 C 654.073,211.481 656.357,210.729 658.643,209.976 Z" fill="#FFFFFF" stroke="none" />
  <path id="34" d="M 855,506 C 851.333,505.333 847.667,504.667 844,504 C 838.747,493.538 835.545,485.775 833.495,480 C 826.768,461.047 821.053,452.091 813.128,448.080 C 805.962,444.454 804.327,444.570 784.855,450.091 C 763.300,456.203 760.245,457.423 753.196,462.743 C 746.750,467.607 741.657,473.489 730.137,489.368 C 720.464,502.702 718.527,505.861 719.459,506.793 C 720.843,508.177 725.844,503.735 731.785,495.846 C 746.124,476.805 747.919,474.855 750.808,475.189 C 755.094,475.684 754.891,479.305 750.269,484.839 C 748.128,487.402 745.003,491.525 743.323,494 C 739.779,499.223 730,518.211 730,519.872 C 730,521.619 733.511,521.202 735.233,519.250 C 736.082,518.287 739.543,512.819 742.924,507.097 C 749.423,496.098 757.468,485.350 761.683,482.035 C 763.619,480.512 764.659,480.282 766.107,481.057 C 769.158,482.690 768.318,485.911 763.318,491.764 C 757.647,498.402 746,517.535 746,520.212 C 746,521.639 746.584,522.057 748.250,521.820 C 749.825,521.596 752.528,518.499 757.258,511.500 C 765.681,499.037 777.389,486 780.160,486 C 781.298,486 782.667,487.015 783.279,488.312 C 784.251,490.371 783.735,491.373 778.554,497.480 C 775.355,501.251 771.361,507.298 769.678,510.918 C 766.811,517.085 766.743,517.496 768.590,517.444 C 769.888,517.407 772.467,514.673 776.136,509.444 C 782.857,499.866 788.336,494.687 799.257,487.588 C 807.518,482.218 811.751,478.318 815.909,472.250 C 818.429,468.572 821.416,468.041 822.995,470.991 C 825.239,475.183 817.952,484.948 807.420,491.862 C 803.339,494.541 800,497.017 800,497.366 C 800,497.577 800,497.789 800,498 C 797.330,497.704 790.626,502.306 790.896,504.250 C 790.931,504.500 790.965,504.750 791,505 C 786.953,508.487 784.075,511.975 781.994,515 C 776.089,523.583 772.590,526.455 768.038,526.455 C 765.658,526.455 763.364,525.735 762.101,524.592 C 760.076,522.759 759.977,522.787 756.018,526.364 C 751.483,530.461 746.215,531.240 742.174,528.409 C 740.091,526.950 739.608,526.958 736.354,528.502 C 731.922,530.605 727.147,529.850 724.053,526.557 C 722.226,524.612 721.858,523.258 722.151,519.572 C 722.500,515.189 722.404,515 719.834,515 C 718.360,515 715.720,513.794 713.967,512.319 C 711.040,509.856 710.830,509.286 711.390,505.319 C 711.593,503.879 711.797,502.440 712,501 C 714.518,499.985 716.094,497.735 717.125,495.345 C 717.750,493.897 718.375,492.448 719,491 C 723.076,485.638 723.089,485.465 721.360,484.506 C 716.722,481.932 713,477.179 713.015,473.850 C 713.023,472.008 713.388,469.937 713.824,469.250 C 714.260,468.563 720.216,466.162 727.059,463.915 C 733.902,461.668 743.550,457.665 748.500,455.019 C 758.517,449.664 767.927,446.083 780.225,442.943 C 786.867,441.247 789.273,440.081 792.753,436.873 C 805.138,425.457 825.436,425.098 841.771,436.006 C 851.903,442.772 863.170,456.063 869.073,468.214 C 870.960,472.098 871.124,473.146 870.048,474.442 C 867.342,477.702 864.379,476.334 860.962,470.250 C 856.957,463.119 853.135,458.047 846.581,451.164 C 839.991,444.244 834.315,440.344 827.327,437.940 C 821.416,435.906 812.527,435.339 811.542,436.932 C 811.225,437.445 813.708,439.326 817.059,441.112 C 827.685,446.776 832.449,453.749 840.623,475.605 C 846.306,490.801 848.555,495.790 852.633,502.250 C 853.422,503.500 854.211,504.750 855,506 ZM 731.415,471.748 C 730.391,470.724 723.500,473.644 723.500,475.101 C 723.500,477.193 727.889,477.409 730.082,475.425 C 732.081,473.616 732.401,472.734 731.415,471.748 Z" fill="#4B1F53" stroke="none" />
  <path id="34" d="M 621,496 C 618,496 615,496 612,496 C 614.875,489.350 618.120,477.283 619.356,468.646 C 619.540,467.361 619.724,466.077 619.908,464.792 C 618.673,464.949 617.439,465.105 616.204,465.262 C 610.937,465.930 601.454,464.272 596.713,461.853 C 593.453,460.190 592.667,459.250 592.667,457.015 C 592.667,453.177 595.596,452.463 601.098,454.959 C 609.525,458.782 619.597,457.331 629.946,450.804 C 633.235,448.730 635.653,448 639.236,448 C 644.479,448 647.290,449.197 658.954,456.398 C 669.126,462.677 670.918,462.120 663.818,454.884 C 660.286,451.284 655.462,447.747 651.068,445.534 C 644.737,442.346 644,441.671 644,439.055 C 644,434.199 646.849,434.312 657.034,439.572 C 662.030,442.152 670.221,447.400 675.236,451.234 C 685.792,459.304 688.583,460.817 690.104,459.296 C 692.325,457.076 678.372,444.508 664.331,436.083 C 658.137,432.366 656.500,430.896 656.500,429.051 C 656.500,427.768 657.292,426.219 658.260,425.609 C 661.450,423.600 675.467,432.242 690.500,445.487 C 694.350,448.879 698.613,452.407 699.973,453.327 C 702.953,455.343 706,455.507 706,453.651 C 706,451.237 686.724,433.517 679.305,429.111 C 670.670,423.982 669.213,422.475 670.660,420.166 C 672.556,417.140 675.833,417.765 684.750,422.854 C 689.562,425.600 696.245,428.597 699.599,429.513 C 705.615,431.156 710.500,431.247 710.500,429.715 C 710.500,428.726 683.694,416.604 675.718,413.986 C 666.831,411.069 658.526,410.493 651.474,412.306 C 648.188,413.151 638.075,416.991 629,420.840 C 619.925,424.689 611.150,428.164 609.500,428.562 C 600.850,430.649 591.889,437.890 586.682,447 C 585.267,449.475 581.130,460.500 577.487,471.500 C 573.844,482.500 569.319,494.312 567.432,497.750 C 566.288,499.833 565.144,501.917 564,504 C 557.540,505.616 555.065,505.841 554.332,505.543 C 553.888,505.362 553.444,505.181 553,505 C 559.573,496.206 564.801,484.733 570.547,466.500 C 573.147,458.250 576.523,449.002 578.051,445.948 C 581.937,438.179 588.371,430.355 593.598,427.040 C 598.942,423.651 597.636,422.675 589.522,423.996 C 576.580,426.102 562.720,437.926 551.895,456.094 C 547.427,463.592 545.827,465.500 544.004,465.500 C 539.470,465.500 539.181,462.558 543,455.284 C 559.421,424.005 585.248,409.120 608.724,417.403 C 610.126,417.898 611.527,418.391 612.929,418.886 C 618.071,416.741 623.212,414.596 628.354,412.451 C 636.838,408.912 646.641,405.281 650.139,404.384 C 657.853,402.405 667.510,402.987 677.339,406.023 C 686.383,408.816 716.181,422.588 717.750,424.700 C 719.266,426.740 719.376,431.429 717.970,434.055 C 716.670,436.485 711.879,439 708.550,439 C 705.008,439 705.353,440.574 710,445.616 C 713.222,449.111 714,450.704 714,453.803 C 714,459.522 710.446,462.496 703.597,462.511 C 699.353,462.520 697.736,463.044 695.101,465.261 C 691.104,468.624 685.943,468.873 681.121,465.933 C 679.995,465.246 678.868,464.560 677.742,463.873 C 676.850,464.728 675.958,465.581 675.066,466.436 C 670.482,470.827 666.231,470.050 653.538,462.500 C 641.209,455.166 638.743,454.713 632.525,458.647 C 631.130,459.529 629.736,460.413 628.341,461.295 C 627.925,464.663 627.508,468.029 627.092,471.397 C 626.405,476.953 624.753,484.763 623.421,488.750 C 622.614,491.167 621.807,493.583 621,496 Z" fill="#4B1F53" stroke="none" />
  <path id="13" d="M 612,496 C 611.269,497.331 608.006,498.030 604.278,498.410 C 600.550,498.790 589.963,500.388 580.750,501.960 C 571.537,503.532 564,504.635 564,504.410 C 564,504.273 564,504.137 564,504 C 565.144,501.917 566.288,499.833 567.432,497.750 C 569.319,494.312 573.844,482.500 577.487,471.500 C 581.130,460.500 585.267,449.475 586.682,447 C 591.889,437.890 600.850,430.649 609.500,428.562 C 611.150,428.164 619.925,424.689 629,420.840 C 638.075,416.991 648.188,413.151 651.474,412.306 C 658.526,410.493 666.831,411.069 675.718,413.986 C 683.694,416.604 710.500,428.726 710.500,429.715 C 710.500,431.247 705.615,431.156 699.599,429.513 C 696.245,428.597 689.562,425.600 684.750,422.854 C 675.833,417.765 672.556,417.140 670.660,420.166 C 669.213,422.475 670.670,423.982 679.305,429.111 C 686.724,433.517 706,451.237 706,453.651 C 706,455.507 702.953,455.343 699.973,453.327 C 698.613,452.407 694.350,448.879 690.500,445.487 C 675.467,432.242 661.450,423.600 658.260,425.609 C 657.292,426.219 656.500,427.768 656.500,429.051 C 656.500,430.896 658.137,432.366 664.331,436.083 C 678.372,444.508 692.325,457.076 690.104,459.296 C 688.583,460.817 685.792,459.304 675.236,451.234 C 670.221,447.400 662.030,442.152 657.034,439.572 C 646.849,434.312 644,434.199 644,439.055 C 644,441.671 644.737,442.346 651.068,445.534 C 655.462,447.747 660.286,451.284 663.818,454.884 C 670.918,462.120 669.126,462.677 658.954,456.398 C 647.290,449.197 644.479,448 639.236,448 C 635.653,448 633.235,448.730 629.946,450.804 C 619.597,457.331 609.525,458.782 601.098,454.959 C 595.596,452.463 592.667,453.177 592.667,457.015 C 592.667,459.250 593.453,460.190 596.713,461.853 C 601.454,464.272 610.937,465.930 616.204,465.262 C 617.439,465.105 618.673,464.949 619.908,464.792 C 619.724,466.077 619.540,467.361 619.356,468.646 C 618.120,477.283 614.875,489.350 612,496 Z" fill="#FFFFFF" stroke="none" />
  <path id="13" d="M 844,504 C 842.062,504.219 836.100,503.335 829.500,502.178 C 822.900,501.021 813.562,499.607 808.750,499.037 C 805.833,498.691 802.917,498.346 800,498 C 800,497.789 800,497.577 800,497.366 C 800,497.017 803.339,494.541 807.420,491.862 C 817.952,484.948 825.239,475.183 822.995,470.991 C 821.416,468.041 818.429,468.572 815.909,472.250 C 811.751,478.318 807.518,482.218 799.257,487.588 C 788.336,494.687 782.857,499.866 776.136,509.444 C 772.467,514.673 769.888,517.407 768.590,517.444 C 766.743,517.496 766.811,517.085 769.678,510.918 C 771.361,507.298 775.355,501.251 778.554,497.480 C 783.735,491.373 784.251,490.371 783.279,488.312 C 782.667,487.015 781.298,486 780.160,486 C 777.389,486 765.681,499.037 757.258,511.500 C 752.528,518.499 749.825,521.596 748.250,521.820 C 746.584,522.057 746,521.639 746,520.212 C 746,517.535 757.647,498.402 763.318,491.764 C 768.318,485.911 769.158,482.690 766.107,481.057 C 764.659,480.282 763.619,480.512 761.683,482.035 C 757.468,485.350 749.423,496.098 742.924,507.097 C 739.543,512.819 736.082,518.287 735.233,519.250 C 733.511,521.202 730,521.619 730,519.872 C 730,518.211 739.779,499.223 743.323,494 C 745.003,491.525 748.128,487.402 750.269,484.839 C 754.891,479.305 755.094,475.684 750.808,475.189 C 747.919,474.855 746.124,476.805 731.785,495.846 C 725.844,503.735 720.843,508.177 719.459,506.793 C 718.527,505.861 720.464,502.702 730.137,489.368 C 741.657,473.489 746.750,467.607 753.196,462.743 C 760.245,457.423 763.300,456.203 784.855,450.091 C 804.327,444.570 805.962,444.454 813.128,448.080 C 821.053,452.091 826.768,461.047 833.495,480 C 835.545,485.775 838.747,493.538 844,504 Z" fill="#FFFFFF" stroke="none" />
  <path id="34" d="M 575,352 C 571.931,352 569.267,352.710 567.099,353.577 C 561.592,355.780 558.516,354.207 559.444,349.661 C 559.799,347.922 560.216,345.099 560.370,343.386 C 560.761,339.050 565.352,331.596 569.652,328.316 C 571.636,326.803 576.193,324.578 579.778,323.371 C 585.555,321.427 586.432,320.785 587.484,317.724 C 589.395,312.166 592.821,308.144 598.341,304.978 C 604.290,301.566 607.501,301.229 609.135,303.845 C 610.169,305.501 609.794,305.815 605.467,306.904 C 599.672,308.363 593,314.429 593,318.238 C 593,320.589 593.360,320.740 600.250,321.289 C 610.062,322.070 624.296,325.942 637.142,331.326 C 649.002,336.296 657.049,340.771 674,351.821 C 701.764,369.920 724.803,378 748.642,378 C 757.181,378 759.171,378.283 759.664,379.567 C 760.780,382.475 758.314,383.286 748.660,383.182 C 724.828,382.925 700.254,374.250 673.085,356.507 C 651.854,342.641 636.624,335.219 617.398,329.370 C 609.776,327.051 606.636,326.652 595.500,326.586 C 583.778,326.517 582.035,326.740 577.762,328.859 C 571.577,331.926 566.812,337.402 565.528,342.917 C 565.185,344.389 564.843,345.861 564.500,347.333 C 566,347.100 567.500,346.866 569,346.633 C 571.475,346.248 575.743,345.554 578.484,345.090 C 593.727,342.510 616.196,350.500 655.484,372.473 C 677.038,384.528 692.105,391.605 705.336,395.889 C 718.963,400.301 739.208,404.005 749.613,403.989 C 757.936,403.976 778.521,400.865 789.500,397.960 C 807.479,393.203 833.086,381.718 845.445,372.868 C 847.380,371.482 849.315,370.097 851.250,368.711 C 851.064,366.906 850.877,365.100 850.691,363.295 C 849.501,351.765 838.933,336.047 833.318,337.456 C 829.957,338.300 827.702,336.450 829.189,334.069 C 830.048,332.694 829.737,331.106 827.772,326.814 C 824.733,320.176 820.662,316.979 815.346,317.056 C 811.758,317.108 811.239,317.517 807.601,323.167 C 801.453,332.717 785.696,343.163 777.080,343.401 C 772.167,343.537 772.291,340.905 777.274,339.272 C 786.317,336.309 792.748,332.405 799.250,325.929 C 807.858,317.356 808.178,314.903 801.334,309.988 C 796.788,306.723 796.721,306.598 798.687,305.077 C 800.571,303.620 800.996,303.751 805.102,307.041 C 808.227,309.545 811.529,311.028 816.510,312.161 C 822.631,313.554 824.049,314.329 827.691,318.280 C 829.985,320.768 832.428,324.697 833.121,327.010 C 834.022,330.016 835.398,331.858 837.946,333.466 C 846.678,338.978 852.858,349.004 855.585,362.084 C 856.088,364.497 856.591,366.911 857.094,369.324 C 855.412,371.103 853.729,372.883 852.047,374.662 C 850.365,376.441 848.682,378.221 847,380 C 820.286,395.208 803.659,401.830 780.323,406.555 C 757.433,411.190 735.924,410.837 714.732,405.480 C 696.705,400.923 680.303,393.615 648.500,375.966 C 629.512,365.429 615.566,358.835 603.774,354.820 C 595.614,352.041 593.328,351.682 584.750,351.831 C 581.500,351.887 578.250,351.944 575,352 Z" fill="#4B1F53" stroke="none" />
  <path id="13" d="M 728.970,587.500 C 730.494,604.550 731.686,619.400 731.620,620.500 C 731.503,622.441 730.699,622.508 704.250,622.766 C 695.167,622.855 686.083,622.943 677,623.032 C 677.008,621.777 677.015,620.521 677.023,619.266 C 677.066,612.414 681.830,558.084 682.480,557.032 C 683.020,556.158 725.759,555.391 726.099,556.250 C 726.154,556.388 727.446,570.450 728.970,587.500 ZM 688.500,584.299 C 683.951,586.468 684.080,588.363 689,591.619 C 691.200,593.075 693,594.637 693,595.090 C 693,595.543 691.425,597.171 689.500,598.707 C 685.558,601.852 684.914,605.348 687.974,606.986 C 689.617,607.865 690.616,607.439 693.936,604.439 C 696.130,602.457 698.391,601.124 698.962,601.477 C 699.533,601.830 700,603.860 700,605.988 C 700,608.172 700.684,610.542 701.571,611.429 C 703.430,613.288 703.564,613.304 706.066,611.965 C 707.529,611.182 708,609.856 708,606.524 C 708,604.101 708.467,601.830 709.038,601.477 C 709.609,601.124 711.890,602.475 714.107,604.478 C 718.463,608.413 719.573,608.529 721.734,605.275 C 723.020,603.338 722.829,602.817 719.487,599.117 C 715.516,594.721 715.594,593.778 720.125,591.435 C 723.722,589.575 723.742,586.167 720.166,584.391 C 715.562,582.105 715.395,581.219 718.887,577.617 C 725.377,570.921 720.164,565.541 713.471,572.028 C 709.573,575.807 708,575.264 708,570.141 C 708,566.071 706.595,564 703.835,564 C 701.535,564 700,566.976 700,571.434 C 700,575.869 698.368,576.037 694.500,572 C 691.444,568.810 689.154,568.246 687.200,570.200 C 685.345,572.055 685.744,573.639 689,577.347 C 690.650,579.226 692,581.184 692,581.697 C 692,582.210 690.425,583.381 688.500,584.299 Z" fill="#FFFFFF" stroke="none" />
  <path id="13" d="M 793.362,580 C 800.794,596.225 806.904,609.808 806.938,610.183 C 807.031,611.200 805.473,611.527 780.792,615.671 C 765.113,618.303 757.763,619.163 757.047,618.447 C 755.738,617.138 734.522,556.145 735.155,555.512 C 735.412,555.255 745.032,553.463 756.533,551.530 C 773.158,548.736 777.691,548.271 778.647,549.258 C 779.308,549.941 785.930,563.775 793.362,580 ZM 752.631,568.076 C 747.825,571.856 749.482,574.778 757.402,576.488 C 758.998,576.833 761.586,578.486 763.152,580.163 C 767.215,584.512 767.154,590.616 763,595.347 C 759.493,599.342 759.297,600.554 761.934,601.965 C 765.208,603.717 772.283,603.148 777.030,600.750 C 789.730,594.334 790.023,576.722 777.572,568.190 C 770.278,563.192 758.906,563.140 752.631,568.076 Z" fill="#FFFFFF" stroke="none" />
  <path id="13" d="M 672.588,555 C 673.667,555 672.249,559.616 662.490,587.872 C 656.721,604.577 652,618.414 652,618.622 C 652,619.574 645.218,618.741 626.605,615.500 C 601.756,611.174 602,611.230 602,609.733 C 602,608.083 627.991,550.851 629.490,549.201 C 630.452,548.141 634.494,548.556 651.423,551.451 C 662.837,553.403 672.361,555 672.588,555 ZM 622.639,590.872 C 620.428,592.723 620.485,593.027 624.513,601.025 C 626.943,605.850 628.591,608 629.861,608 C 630.871,608 634.802,606.304 638.598,604.232 C 646.480,599.929 647.215,598.301 644.060,592.117 C 641.596,587.286 641.542,586.186 643.529,581.220 C 644.841,577.941 645.709,577.226 649.656,576.170 C 656.975,574.212 662.101,567.501 658.800,564.200 C 656.839,562.239 654.608,562.814 651.813,566 C 647.359,571.076 640,569.622 640,563.665 C 640,560.036 638.503,558 635.835,558 C 631.386,558 630.610,567.195 634.653,572 C 635.537,573.051 636.423,574.102 637.307,575.153 C 636.663,576.711 636.019,578.269 635.375,579.827 C 633.862,583.487 632.450,585.042 628.861,587 C 626.341,588.375 623.541,590.117 622.639,590.872 Z" fill="#FFFFFF" stroke="none" />
  <path id="13" d="M 851.643,555.162 C 865.576,569.056 876.644,580.741 876.238,581.127 C 874.376,582.899 832.974,598.928 831.610,598.404 C 830.763,598.079 824.286,590.992 817.217,582.656 C 803.764,566.792 789.380,549.629 787.250,546.898 C 785.971,545.259 789.431,543.708 819.405,532.486 C 821.707,531.624 824.008,530.763 826.310,529.901 C 834.754,538.322 843.199,546.741 851.643,555.162 ZM 801.662,552.250 C 799.114,558.564 811.174,565.996 821.465,564.453 C 825.151,563.900 825.983,564.099 826.863,565.744 C 827.657,567.228 827.416,568.673 825.842,571.854 C 823.449,576.690 823.878,581.304 827.099,585.399 C 829.389,588.311 832.132,588.751 833.995,586.507 C 834.993,585.305 834.898,584.304 833.512,581.384 C 831.490,577.122 832.387,574.103 836.471,571.427 C 840.215,568.974 847.716,569.919 852.309,573.422 C 856.460,576.588 859.356,576.486 859.830,573.157 C 860.583,567.860 851.805,562.714 841.800,562.586 C 833.399,562.479 831.971,561.325 834.478,556.670 C 838.128,549.892 833.663,538.703 828.022,540.493 C 825.728,541.221 825.698,541.746 827.537,549.152 C 828.022,551.106 827.650,552.350 826.123,553.877 C 821.978,558.022 814.334,557.834 809.135,553.460 C 805.981,550.806 802.474,550.238 801.662,552.250 ZM 815.345,548.543 C 814.454,549.761 814.374,550.830 815.074,552.138 C 816.971,555.683 822.401,553.876 821.837,549.887 C 821.411,546.871 817.204,546 815.345,548.543 ZM 839.667,574.667 C 838.513,575.821 838.941,578.706 840.452,579.960 C 843.642,582.608 848.657,578.701 846.070,575.584 C 844.743,573.986 840.899,573.435 839.667,574.667 Z" fill="#FFFFFF" stroke="none" />
  <path id="13" d="M 620.363,544.357 C 622.559,545.143 623.521,543.705 609.553,560.500 C 589.890,584.141 576.883,599 575.850,599 C 575.272,599 565.574,595.175 554.298,590.500 C 543.022,585.825 533.392,582 532.898,582 C 530.074,582 534.369,577.084 556.297,555.223 C 574.066,537.508 581.218,531 582.918,531 C 584.196,531 592.725,533.855 601.871,537.345 C 611.017,540.835 619.339,543.990 620.363,544.357 ZM 561.250,560.627 C 557.861,562.764 558.497,564.964 563.017,566.739 C 566.409,568.072 566.924,568.642 566.327,570.408 C 565.938,571.558 565.593,573.625 565.560,575 C 565.479,578.378 568.948,578.813 573.506,575.996 C 574.664,575.280 575.822,574.565 576.980,573.849 C 577.984,574.564 578.988,575.279 579.992,575.994 C 581.649,577.174 584.015,577.995 585.252,577.819 C 587.112,577.555 587.553,576.780 587.804,573.328 C 588.090,569.392 588.345,569.081 592.304,567.828 C 595.759,566.734 596.500,566.058 596.500,564 C 596.500,562.144 595.670,561.134 593.275,560.080 C 590.262,558.753 590.064,558.361 590.275,554.117 C 590.552,548.528 588.629,547.716 582.835,550.972 C 581.545,551.697 580.254,552.423 578.964,553.148 C 577.944,552.290 576.926,551.432 575.906,550.574 C 574.224,549.158 572.457,548 571.980,548 C 570.433,548 568,552.374 568,555.155 C 568,557.100 567.365,558.055 565.750,558.537 C 564.513,558.906 562.487,559.847 561.250,560.627 Z" fill="#FFFFFF" stroke="none" />
  <path id="13" d="M 710.621,338.712 C 711.013,338.320 713.458,338 716.056,338 C 733.695,338 765.942,326.400 785.852,312.891 C 788.336,311.205 790.821,309.520 793.305,307.834 C 794.569,308.404 795.833,308.974 797.097,309.544 C 799.183,310.485 801.868,312.296 803.063,313.568 C 803.787,314.339 804.513,315.110 805.237,315.881 C 804.514,317.050 803.792,318.220 803.069,319.389 C 799.193,325.661 788.897,333.154 779.500,336.542 C 773.077,338.858 772,339.728 772,342.603 C 772,345.856 775.394,346.516 781.546,344.458 C 792.983,340.633 804.056,332.263 810.063,322.902 C 813.426,317.661 814.569,317.204 818.800,319.405 C 822.379,321.267 825.371,324.726 827.032,328.924 C 827.484,330.065 827.935,331.207 828.387,332.348 C 826.739,333.799 825.091,335.250 823.443,336.701 C 817.137,342.254 802.788,349.375 792.500,352.057 C 781.063,355.038 763.143,355.693 751,353.573 C 735.766,350.913 708.467,340.866 710.621,338.712 Z" fill="#FFFFFF" stroke="none" />
  <path id="13" d="M 672.964,307.952 C 675.253,303.624 678,293.338 678,289.097 C 678,288.059 678,287.021 678,285.983 C 679.750,286.961 681.500,287.938 683.250,288.916 C 696.611,296.380 709.023,296.819 722.079,290.290 C 724.605,289.027 727.132,287.763 729.658,286.500 C 730.004,288.723 730.351,290.947 730.697,293.170 C 731.269,296.838 733.159,302.879 734.897,306.593 C 736.635,310.307 737.677,313.606 737.212,313.923 C 736.747,314.240 733.697,316.577 730.434,319.115 C 717.271,329.352 715.742,330 704.755,330 C 697.557,330 694.041,329.556 691.713,328.352 C 686.393,325.601 670.997,313.919 671.044,312.670 C 671.068,312.027 671.932,309.903 672.964,307.952 Z" fill="#FFFFFF" stroke="none" />
  <path id="13" d="M 639.474,255 C 641.474,243.181 644.132,232 644.941,232 C 645.348,232 646.253,234.587 646.952,237.750 C 649.640,249.912 656.230,262.740 665.150,273.171 C 669.681,278.470 670,279.205 670,284.372 C 670,293.833 666.398,305.738 663.222,306.770 C 661.186,307.432 646.578,292.096 643.561,286.131 C 640.821,280.713 637.963,269.613 638.120,265 C 638.167,263.625 638.776,259.125 639.474,255 Z" fill="#FFFFFF" stroke="none" />
  <path id="34" d="M 648.428,221.560 C 649.903,216.792 650.537,217.623 651.432,225.500 C 653.085,240.051 658.246,253.087 667.118,265.122 C 669.803,268.764 672,272.252 672,272.872 C 672,273.492 672.562,274.008 673.250,274.017 C 673.938,274.026 675.463,275.039 676.639,276.267 C 679.508,279.262 688.957,284.871 694.231,286.709 C 700.917,289.040 712.087,288.026 719.477,284.418 C 731.347,278.623 744.766,263.157 751.188,247.873 C 754.329,240.396 757,228.377 757,221.712 C 757,216.728 758.240,217.771 759.972,224.212 C 763.107,235.873 754.858,256.985 740.803,273.274 C 739.142,275.199 737.483,277.122 735.822,279.047 C 736.164,282.193 736.505,285.340 736.847,288.486 C 737.412,293.690 738.795,300.009 739.928,302.571 C 742.045,307.357 741.927,309 739.464,309 C 736.664,309 733.298,300.454 731.489,288.750 C 731.170,286.688 730.430,285 729.844,285 C 729.258,285 725.364,286.688 721.191,288.750 C 714.016,292.296 713.082,292.500 704,292.500 C 694.918,292.500 693.984,292.296 686.809,288.750 C 682.636,286.688 678.783,285 678.248,285 C 677.713,285 676.745,288.278 676.099,292.285 C 674.909,299.659 670.863,310 669.168,310 C 668.660,310 667.757,309.412 667.161,308.693 C 666.361,307.729 666.729,305.770 668.567,301.219 C 670.109,297.402 671.293,292.005 671.675,287.055 C 671.881,284.389 672.086,281.723 672.292,279.057 C 670.804,277.297 669.316,275.539 667.828,273.779 C 658.103,262.281 652.178,251.300 648.911,238.724 C 646.783,230.532 646.688,227.184 648.428,221.560 Z" fill="#4B1F53" stroke="none" />
  <path id="34" d="M 688.500,584.299 C 690.425,583.381 692,582.210 692,581.697 C 692,581.184 690.650,579.226 689,577.347 C 685.744,573.639 685.345,572.055 687.200,570.200 C 689.154,568.246 691.444,568.810 694.500,572 C 698.368,576.037 700,575.869 700,571.434 C 700,566.976 701.535,564 703.835,564 C 706.595,564 708,566.071 708,570.141 C 708,575.264 709.573,575.807 713.471,572.028 C 720.164,565.541 725.377,570.921 718.887,577.617 C 715.395,581.219 715.562,582.105 720.166,584.391 C 723.742,586.167 723.722,589.575 720.125,591.435 C 715.594,593.778 715.516,594.721 719.487,599.117 C 722.829,602.817 723.020,603.338 721.734,605.275 C 719.573,608.529 718.463,608.413 714.107,604.478 C 711.890,602.475 709.609,601.124 709.038,601.477 C 708.467,601.830 708,604.101 708,606.524 C 708,609.856 707.529,611.182 706.066,611.965 C 703.564,613.304 703.430,613.288 701.571,611.429 C 700.684,610.542 700,608.172 700,605.988 C 700,603.860 699.533,601.830 698.962,601.477 C 698.391,601.124 696.130,602.457 693.936,604.439 C 690.616,607.439 689.617,607.865 687.974,606.986 C 684.914,605.348 685.558,601.852 689.500,598.707 C 691.425,597.171 693,595.543 693,595.090 C 693,594.637 691.200,593.075 689,591.619 C 684.080,588.363 683.951,586.468 688.500,584.299 ZM 707.658,584.154 C 706.544,583.074 705.431,581.995 704.317,580.915 C 703.096,582.013 701.874,583.109 700.653,584.207 C 699.432,585.305 698.210,586.402 696.989,587.500 C 698.201,588.773 699.412,590.048 700.624,591.321 C 701.836,592.595 703.047,593.867 704.259,595.141 C 705.382,594.052 706.507,592.963 707.630,591.874 C 709.484,590.077 711,588.334 711,588 C 711,587.666 709.496,585.935 707.658,584.154 Z" fill="#4B1F53" stroke="none" />
  <path id="13" d="M 742.561,274 C 748.301,267.364 753.396,259.574 756.059,253.361 C 759.058,246.365 762,236.944 762,234.335 C 762,229.182 763.952,232.506 765.967,241.090 C 771.163,263.224 771.032,273.249 765.394,284.837 C 762.283,291.231 747.054,307.512 744.856,306.794 C 742.461,306.012 738.811,295.027 738.293,287.041 C 738.130,284.527 737.966,282.014 737.803,279.500 C 739.389,277.667 740.975,275.833 742.561,274 Z" fill="#FFFFFF" stroke="none" />
  <path id="34" d="M 622.639,590.872 C 623.541,590.117 626.341,588.375 628.861,587 C 632.450,585.042 633.862,583.487 635.375,579.827 C 636.019,578.269 636.663,576.711 637.307,575.153 C 636.423,574.102 635.537,573.051 634.653,572 C 630.610,567.195 631.386,558 635.835,558 C 638.503,558 640,560.036 640,563.665 C 640,569.622 647.359,571.076 651.813,566 C 654.608,562.814 656.839,562.239 658.800,564.200 C 662.101,567.501 656.975,574.212 649.656,576.170 C 645.709,577.226 644.841,577.941 643.529,581.220 C 641.542,586.186 641.596,587.286 644.060,592.117 C 647.215,598.301 646.480,599.929 638.598,604.232 C 634.802,606.304 630.871,608 629.861,608 C 628.591,608 626.943,605.850 624.513,601.025 C 620.485,593.027 620.428,592.723 622.639,590.872 ZM 633.341,594.173 C 631.153,594.595 630.842,597.500 632.986,597.500 C 633.803,597.500 634.632,596.671 634.827,595.659 C 635.084,594.323 634.677,593.916 633.341,594.173 Z" fill="#4B1F53" stroke="none" />
  <path id="13" d="M 711.919,162 C 716.480,162 726.525,165.487 731.900,168.936 C 737.823,172.737 744.703,179.923 748.253,186.015 C 751.289,191.226 755.427,201.907 754.693,202.641 C 753.857,203.477 739.351,197.286 733.748,193.701 C 723.814,187.345 714.691,176.489 710.681,166.250 C 710.126,164.833 709.571,163.417 709.016,162 C 709.984,162 710.951,162 711.919,162 Z" fill="#FFFFFF" stroke="none" />
  <path id="34" d="M 653.441,206.388 C 654.223,205.271 656.806,203.783 659.181,203.081 C 673.725,198.783 690.473,185.078 696.429,172.598 C 698.292,168.694 700.069,164.712 700.377,163.750 C 700.739,162.620 701.954,162 703.805,162 C 706.404,162 707.063,162.787 710.825,170.379 C 717.907,184.670 728.903,194.689 744.500,201.060 C 752.910,204.495 756.665,207.115 755.614,208.816 C 754.019,211.397 735.474,203.166 725.251,195.339 C 717.613,189.491 708.323,178.329 707.358,173.839 C 707.043,172.375 705.937,170.955 704.900,170.684 C 703.426,170.299 702.351,171.438 699.969,175.907 C 692.522,189.878 677.311,201.872 659.084,208.143 C 653.154,210.183 651.207,209.578 653.441,206.388 Z" fill="#4B1F53" stroke="none" />
  <path id="34" d="M 561.250,560.627 C 562.487,559.847 564.513,558.906 565.750,558.537 C 567.365,558.055 568,557.100 568,555.155 C 568,552.374 570.433,548 571.980,548 C 572.457,548 574.224,549.158 575.906,550.574 C 576.926,551.432 577.944,552.290 578.964,553.148 C 580.254,552.423 581.545,551.697 582.835,550.972 C 588.629,547.716 590.552,548.528 590.275,554.117 C 590.064,558.361 590.262,558.753 593.275,560.080 C 595.670,561.134 596.500,562.144 596.500,564 C 596.500,566.058 595.759,566.734 592.304,567.828 C 588.345,569.081 588.090,569.392 587.804,573.328 C 587.553,576.780 587.112,577.555 585.252,577.819 C 584.015,577.995 581.649,577.174 579.992,575.994 C 578.988,575.279 577.984,574.564 576.980,573.849 C 575.822,574.565 574.664,575.280 573.506,575.996 C 568.948,578.813 565.479,578.378 565.560,575 C 565.593,573.625 565.938,571.558 566.327,570.408 C 566.924,568.642 566.409,568.072 563.017,566.739 C 558.497,564.964 557.861,562.764 561.250,560.627 ZM 580.416,560.930 C 578.425,559.277 575.500,560.863 575.500,563.595 C 575.500,565.837 578.510,566.651 580.548,564.960 C 582.406,563.418 582.378,562.558 580.416,560.930 Z" fill="#4B1F53" stroke="none" />
  <path id="34" d="M 801.662,552.250 C 802.474,550.238 805.981,550.806 809.135,553.460 C 814.334,557.834 821.978,558.022 826.123,553.877 C 827.650,552.350 828.022,551.106 827.537,549.152 C 825.698,541.746 825.728,541.221 828.022,540.493 C 833.663,538.703 838.128,549.892 834.478,556.670 C 831.971,561.325 833.399,562.479 841.800,562.586 C 851.805,562.714 860.583,567.860 859.830,573.157 C 859.356,576.486 856.460,576.588 852.309,573.422 C 847.716,569.919 840.215,568.974 836.471,571.427 C 832.387,574.103 831.490,577.122 833.512,581.384 C 834.898,584.304 834.993,585.305 833.995,586.507 C 832.132,588.751 829.389,588.311 827.099,585.399 C 823.878,581.304 823.449,576.690 825.842,571.854 C 827.416,568.673 827.657,567.228 826.863,565.744 C 825.983,564.099 825.151,563.900 821.465,564.453 C 811.174,565.996 799.114,558.564 801.662,552.250 Z" fill="#4B1F53" stroke="none" />
  <path id="13" d="M 656.461,193.627 C 662.665,179.416 669.354,172.108 681.385,166.394 C 688.205,163.155 699,160.773 699,162.506 C 699,162.937 697.454,166.503 695.566,170.429 C 691.395,179.101 685.848,185.580 677.487,191.546 C 668.835,197.720 652.974,204.669 653.012,202.269 C 653.019,201.846 654.571,197.957 656.461,193.627 Z" fill="#FFFFFF" stroke="none" />
  <path id="34" d="M 752.631,568.076 C 758.906,563.140 770.278,563.192 777.572,568.190 C 790.023,576.722 789.730,594.334 777.030,600.750 C 772.283,603.148 765.208,603.717 761.934,601.965 C 759.297,600.554 759.493,599.342 763,595.347 C 767.154,590.616 767.215,584.512 763.152,580.163 C 761.586,578.486 758.998,576.833 757.402,576.488 C 749.482,574.778 747.825,571.856 752.631,568.076 ZM 778.031,580.418 C 776.949,577.743 771.113,572.812 769.910,573.556 C 769.403,573.869 770.116,576.048 771.494,578.400 C 772.913,580.822 774,584.238 774,586.279 C 774,590.530 775.753,592.059 777.652,589.462 C 779.152,587.410 779.312,583.585 778.031,580.418 Z" fill="#4B1F53" stroke="none" />
  <path id="13" d="M 707.658,584.154 C 709.496,585.935 711,587.666 711,588 C 711,588.334 709.484,590.077 707.630,591.874 C 706.507,592.963 705.382,594.052 704.259,595.141 C 703.047,593.867 701.836,592.595 700.624,591.321 C 699.412,590.048 698.201,588.773 696.989,587.500 C 698.210,586.402 699.432,585.305 700.653,584.207 C 701.874,583.109 703.096,582.013 704.317,580.915 C 705.431,581.995 706.544,583.074 707.658,584.154 Z" fill="#FFFFFF" stroke="none" />
  <path id="13" d="M 778.031,580.418 C 779.312,583.585 779.152,587.410 777.652,589.462 C 775.753,592.059 774,590.530 774,586.279 C 774,584.238 772.913,580.822 771.494,578.400 C 770.116,576.048 769.403,573.869 769.910,573.556 C 771.113,572.812 776.949,577.743 778.031,580.418 Z" fill="#FFFFFF" stroke="none" />
  <path id="34" d="M 839.667,574.667 C 840.899,573.435 844.743,573.986 846.070,575.584 C 848.657,578.701 843.642,582.608 840.452,579.960 C 838.941,578.706 838.513,575.821 839.667,574.667 Z" fill="#4B1F53" stroke="none" />
  <path id="13" d="M 731.415,471.748 C 732.401,472.734 732.081,473.616 730.082,475.425 C 727.889,477.409 723.500,477.193 723.500,475.101 C 723.500,473.644 730.391,470.724 731.415,471.748 Z" fill="#FFFFFF" stroke="none" />
  <path id="34" d="M 815.345,548.543 C 817.204,546 821.411,546.871 821.837,549.887 C 822.401,553.876 816.971,555.683 815.074,552.138 C 814.374,550.830 814.454,549.761 815.345,548.543 Z" fill="#4B1F53" stroke="none" />
  <path id="13" d="M 580.416,560.930 C 582.378,562.558 582.406,563.418 580.548,564.960 C 578.510,566.651 575.500,565.837 575.500,563.595 C 575.500,560.863 578.425,559.277 580.416,560.930 Z" fill="#FFFFFF" stroke="none" />
  <path id="13" d="M 633.341,594.173 C 634.677,593.916 635.084,594.323 634.827,595.659 C 634.632,596.671 633.803,597.500 632.986,597.500 C 630.842,597.500 631.153,594.595 633.341,594.173 Z" fill="#FFFFFF" stroke="none" />
</svg>
