<?xml version="1.0" encoding="UTF-8"?>
<svg width="1408" height="768" viewBox="0 0 1408 768" xmlns="http://www.w3.org/2000/svg">
  <path id="17" d="M 0,768 C 0,512 0,256 0,0 C 469.333,0 938.667,0 1408,0 C 1408,256 1408,512 1408,768 C 938.667,768 469.333,768 0,768 ZM 641.915,363.550 C 647.093,358.573 651.203,355.175 651.049,356 C 650.895,356.825 647.670,366.253 643.884,376.950 C 640.098,387.647 637,397.743 637,399.384 C 637,403.743 640.820,410.920 644.251,413.006 C 645.889,414.002 652.014,416.498 657.864,418.553 C 663.714,420.608 668.817,422.564 669.204,422.899 C 669.591,423.234 666.257,425.767 661.795,428.527 C 650.390,435.582 649.577,436.907 649.154,449.141 C 648.849,457.972 648.615,459.062 647.154,458.468 C 646.244,458.098 642.688,457.555 639.252,457.261 C 627.566,456.261 619,461.836 619,470.442 C 619,475.930 620.532,477.836 632.332,487.026 C 635.482,489.479 638.631,491.932 641.780,494.385 C 640.977,495.017 640.173,495.649 639.370,496.281 C 634.034,500.478 632.444,507.953 636.060,511.834 C 639.089,515.085 695.839,542.988 707.774,547.094 C 715.057,549.600 724.367,549.527 734.729,546.884 C 737.494,546.179 740.258,545.474 743.023,544.769 C 746.936,545.467 750.849,546.166 754.762,546.864 C 775.869,550.631 780.537,551.077 786.231,549.869 C 793.876,548.247 799.135,545.283 811.500,535.629 C 817.550,530.905 822.769,527.031 823.098,527.020 C 823.427,527.009 823.988,532.125 824.346,538.389 C 826.161,570.164 835.180,599.507 846.262,609.688 C 853.817,616.629 859.449,616.697 873.687,610.025 C 885.628,604.429 902.193,593.208 915.832,581.476 C 926.473,572.322 945.116,552.603 949.146,546.238 C 950.789,543.644 950.814,543.179 949.421,541.190 C 948.577,539.985 947.276,539 946.530,539 C 945.784,539 942.256,542.487 938.691,546.750 C 924.262,564.004 895.407,589.638 884.379,595 C 883.351,595.500 882.323,596 881.295,596.500 C 882.776,593 884.258,589.500 885.739,586 C 895.691,562.488 903.120,528.135 906.084,491.925 C 909.004,456.249 900.520,428.588 883.880,419.531 C 879.395,417.090 876.994,416.530 869.015,416.060 C 865.843,415.873 862.672,415.687 859.500,415.500 C 861.500,414.611 863.500,413.721 865.500,412.832 C 878.068,407.244 884.314,406.953 894.542,411.476 C 918.717,422.168 929.220,460.347 921.978,511.206 C 920.749,519.833 920.025,527.622 920.367,528.513 C 920.780,529.589 921.914,530.028 923.744,529.817 C 926.130,529.543 926.661,528.846 927.701,524.632 C 931.775,508.126 933.155,475.242 930.510,457.697 C 928.703,445.705 924.063,431.513 919.490,423.984 C 915.541,417.484 907.379,409.440 901.250,406.010 C 898.912,404.702 897.003,403.377 897.006,403.066 C 897.009,402.755 901.622,400.727 907.256,398.560 C 912.890,396.393 924.700,390.990 933.500,386.553 C 947.431,379.529 949.539,378.152 949.801,375.907 C 949.975,374.418 949.402,372.749 948.447,371.956 C 947.030,370.780 946.341,370.847 943.646,372.424 C 926.758,382.310 900.810,393.352 879.028,399.920 C 863.077,404.730 857.552,407.313 849.500,413.723 C 845.650,416.788 841.350,419.142 837.500,420.293 C 834.200,421.279 830.713,422.345 829.750,422.660 C 828.202,423.167 828,422.470 828,416.632 C 828,407.962 826.952,406.879 806.104,394.016 C 788.600,383.216 785.500,382.228 785.500,387.452 C 785.500,390.186 786.697,391.148 801.730,400.483 C 810.657,406.026 818.472,411.072 819.097,411.697 C 819.945,412.545 815.638,415.832 802.108,424.666 C 792.139,431.174 769.475,446.057 751.742,457.739 C 729.637,472.301 718.638,478.982 716.759,478.989 C 714.853,478.996 705.565,473.331 686.259,460.383 C 670.992,450.144 658.500,441.285 658.500,440.696 C 658.500,440.107 663.383,436.714 669.352,433.155 C 672.969,430.998 676.587,428.841 680.204,426.684 C 681.753,427.201 683.303,427.717 684.852,428.234 C 687.408,429.087 700.300,433.697 713.500,438.478 C 739.549,447.914 744.252,448.789 750.207,445.311 C 755.301,442.336 757.162,438.694 765.282,415.809 C 769.441,404.089 780.125,374.250 789.025,349.500 C 812.290,284.801 811.954,285.777 811.978,282.566 C 812.015,277.528 808.241,271.215 803.654,268.644 C 801.369,267.364 784.987,261.188 767.250,254.922 C 756.500,251.124 745.750,247.326 735,243.528 C 734.999,242.523 734.997,241.519 734.996,240.514 C 734.987,233.269 733.645,232.321 690.245,208.907 C 686.805,207.051 684.118,205.075 684.275,204.516 C 684.432,203.957 692.761,199.420 702.784,194.434 C 712.807,189.448 722.398,184.048 724.097,182.434 C 728.996,177.782 732,170.949 732,164.456 C 732,159.538 731.624,158.470 728.956,155.802 C 724.851,151.697 723.979,151.889 692.500,163.837 C 656.777,177.396 657.198,177.162 636.869,194.779 C 628.177,202.312 624.134,205.143 620.869,205.984 C 604.606,210.173 599.879,212.916 592.575,222.406 C 589.915,225.862 586.006,229.469 583.153,231.098 C 577.711,234.206 573.921,238.274 570.837,244.320 C 569.700,246.549 562.060,268.161 553.860,292.346 C 545.660,316.531 537.739,338.546 536.257,341.268 C 534.034,345.353 532.624,346.634 528.189,348.595 C 521.769,351.434 511.086,358.472 481,379.679 C 460.248,394.307 458.500,395.771 458.500,398.520 C 458.500,404.186 462.148,402.992 477,392.464 C 484.425,387.201 490.487,383.255 490.470,383.697 C 490.453,384.138 488.801,389.450 486.799,395.500 C 476.703,426.012 474.947,461.355 481.558,501 C 484.651,519.546 486.336,522.970 490.941,520.057 C 492.179,519.274 491.998,516.822 489.665,502.688 C 484.073,468.818 483.864,441.848 488.998,416.923 C 492.566,399.601 500.503,379.450 506.298,373 C 509.131,369.847 515.990,364.657 516.564,365.231 C 516.802,365.469 515.818,368.552 514.378,372.082 C 507.884,388.001 504.952,417.371 506.860,447.389 C 510.287,501.299 521.125,545.784 536.183,567.750 C 537.154,569.167 538.125,570.583 539.096,572 C 538.104,572 537.112,572 536.120,572 C 530.417,572 517.664,569.838 509.112,567.422 C 497.827,564.234 478.407,554.552 469.037,547.442 C 461.035,541.370 458.808,541.137 458.188,546.309 C 457.921,548.540 459.008,549.755 465.724,554.735 C 479.735,565.124 494.818,572.009 513.956,576.751 C 523.107,579.018 526.681,579.370 541,579.416 C 559.672,579.476 562.621,578.682 568.082,572.120 C 584.977,551.820 591.759,487.620 583.465,426.500 C 582.644,420.450 581.718,414.553 581.408,413.397 C 580.990,411.840 582.180,409.765 585.996,405.397 C 593.431,396.887 599.808,391.978 611.861,385.487 C 625.658,378.057 630.496,374.527 641.915,363.550 ZM 612.829,420.655 C 609.173,423.964 611.544,430 616.500,430 C 619.517,430 622,427.517 622,424.500 C 622,419.632 616.505,417.328 612.829,420.655 ZM 779,211 C 777.900,212.100 777,213.900 777,215 C 777,217.493 780.396,221 782.809,221 C 785.247,221 787.654,218.984 788.461,216.267 C 788.945,214.638 788.444,213.353 786.608,211.517 C 783.569,208.478 781.652,208.348 779,211 ZM 820.200,348.200 C 818.486,349.914 818.718,353.678 820.582,354.393 C 821.452,354.727 823.477,355 825.082,355 C 827.739,355 828,355.308 828,358.429 C 828,361.634 830.049,365 832,365 C 833.951,365 836,361.634 836,358.429 C 836,355.308 836.261,355 838.918,355 C 843.275,355 845,354.034 845,351.593 C 845,348.516 843.138,347 839.360,347 C 836.356,347 836.098,346.735 835.810,343.351 C 835.629,341.224 834.770,339.245 833.750,338.606 C 833.167,338.241 832.583,337.875 832,337.510 C 831.417,337.875 830.833,338.241 830.250,338.606 C 829.230,339.245 828.371,341.224 828.190,343.351 C 827.902,346.735 827.644,347 824.640,347 C 822.858,347 820.860,347.540 820.200,348.200 ZM 830.621,200.521 C 828.657,202.485 828.619,203.098 830.316,205.418 C 831.869,207.542 834.835,207.216 836.388,204.750 C 836.755,204.167 837.123,203.583 837.490,203 C 837.123,202.417 836.755,201.833 836.388,201.250 C 834.886,198.865 832.570,198.572 830.621,200.521 ZM 831.200,248.200 C 830.540,248.860 830,250.120 830,251 C 830,253.822 832.269,255 837.700,255 C 839.467,255 841.233,255 843,255 C 843,256.603 843,258.206 843,259.809 C 843,265.627 844.694,268.320 848.056,267.845 C 850.312,267.527 850.523,267.019 850.798,261.250 C 850.897,259.167 850.996,257.083 851.095,255 C 852.718,255 854.342,255 855.966,255 C 862.590,255 864,254.298 864,251 C 864,247.702 862.590,247 855.966,247 C 854.342,247 852.718,247 851.095,247 C 850.996,244.917 850.897,242.833 850.798,240.750 C 850.523,234.981 850.312,234.473 848.056,234.155 C 844.694,233.680 843,236.373 843,242.191 C 843,243.794 843,245.397 843,247 C 841.233,247 839.467,247 837.700,247 C 834.785,247 831.860,247.540 831.200,248.200 ZM 831.636,295.309 C 829.397,296.168 829.551,300.689 831.862,301.926 C 834.255,303.207 837.362,301.102 836.859,298.541 C 836.393,296.169 833.714,294.511 831.636,295.309 ZM 873.200,301.200 C 871.501,302.899 871.711,307.569 873.571,309.429 C 874.435,310.293 876.204,311 877.500,311 C 880.641,311 883,308.483 883,305.129 C 883,301.565 881.322,300 877.500,300 C 875.795,300 873.860,300.540 873.200,301.200 Z" fill="#FFFFFF" stroke="none" />
  <path id="21" d="M 641.915,363.550 C 630.496,374.527 625.658,378.057 611.861,385.487 C 599.808,391.978 593.431,396.887 585.996,405.397 C 582.180,409.765 580.990,411.840 581.408,413.397 C 581.718,414.553 582.644,420.450 583.465,426.500 C 591.759,487.620 584.977,551.820 568.082,572.120 C 562.621,578.682 559.672,579.476 541,579.416 C 526.681,579.370 523.107,579.018 513.956,576.751 C 494.818,572.009 479.735,565.124 465.724,554.735 C 459.008,549.755 457.921,548.540 458.188,546.309 C 458.808,541.137 461.035,541.370 469.037,547.442 C 478.407,554.552 497.827,564.234 509.112,567.422 C 517.664,569.838 530.417,572 536.120,572 C 537.112,572 538.104,572 539.096,572 C 538.125,570.583 537.154,569.167 536.183,567.750 C 521.125,545.784 510.287,501.299 506.860,447.389 C 504.952,417.371 507.884,388.001 514.378,372.082 C 515.818,368.552 516.802,365.469 516.564,365.231 C 515.990,364.657 509.131,369.847 506.298,373 C 500.503,379.450 492.566,399.601 488.998,416.923 C 483.864,441.848 484.073,468.818 489.665,502.688 C 491.998,516.822 492.179,519.274 490.941,520.057 C 486.336,522.970 484.651,519.546 481.558,501 C 474.947,461.355 476.703,426.012 486.799,395.500 C 488.801,389.450 490.453,384.138 490.470,383.697 C 490.487,383.255 484.425,387.201 477,392.464 C 462.148,402.992 458.500,404.186 458.500,398.520 C 458.500,395.771 460.248,394.307 481,379.679 C 511.086,358.472 521.769,351.434 528.189,348.595 C 532.624,346.634 534.034,345.353 536.257,341.268 C 537.739,338.546 545.660,316.531 553.860,292.346 C 562.060,268.161 569.700,246.549 570.837,244.320 C 573.921,238.274 577.711,234.206 583.153,231.098 C 586.006,229.469 589.915,225.862 592.575,222.406 C 599.879,212.916 604.606,210.173 620.869,205.984 C 624.134,205.143 628.177,202.312 636.869,194.779 C 657.198,177.162 656.777,177.396 692.500,163.837 C 723.979,151.889 724.851,151.697 728.956,155.802 C 731.624,158.470 732,159.538 732,164.456 C 732,170.949 728.996,177.782 724.097,182.434 C 722.398,184.048 712.807,189.448 702.784,194.434 C 692.761,199.420 684.432,203.957 684.275,204.516 C 684.118,205.075 686.805,207.051 690.245,208.907 C 733.645,232.321 734.987,233.269 734.996,240.514 C 734.997,241.519 734.999,242.523 735,243.528 C 745.750,247.326 756.500,251.124 767.250,254.922 C 784.987,261.188 801.369,267.364 803.654,268.644 C 808.241,271.215 812.015,277.528 811.978,282.566 C 811.954,285.777 812.290,284.801 789.025,349.500 C 780.125,374.250 769.441,404.089 765.282,415.809 C 757.162,438.694 755.301,442.336 750.207,445.311 C 744.252,448.789 739.549,447.914 713.500,438.478 C 700.300,433.697 687.408,429.087 684.852,428.234 C 683.303,427.717 681.753,427.201 680.204,426.684 C 676.587,428.841 672.969,430.998 669.352,433.155 C 663.383,436.714 658.500,440.107 658.500,440.696 C 658.500,441.285 670.992,450.144 686.259,460.383 C 705.565,473.331 714.853,478.996 716.759,478.989 C 718.638,478.982 729.637,472.301 751.742,457.739 C 769.475,446.057 792.139,431.174 802.108,424.666 C 815.638,415.832 819.945,412.545 819.097,411.697 C 818.472,411.072 810.657,406.026 801.730,400.483 C 786.697,391.148 785.500,390.186 785.500,387.452 C 785.500,382.228 788.600,383.216 806.104,394.016 C 826.952,406.879 828,407.962 828,416.632 C 828,422.470 828.202,423.167 829.750,422.660 C 830.713,422.345 834.200,421.279 837.500,420.293 C 841.350,419.142 845.650,416.788 849.500,413.723 C 857.552,407.313 863.077,404.730 879.028,399.920 C 900.810,393.352 926.758,382.310 943.646,372.424 C 946.341,370.847 947.030,370.780 948.447,371.956 C 949.402,372.749 949.975,374.418 949.801,375.907 C 949.539,378.152 947.431,379.529 933.500,386.553 C 924.700,390.990 912.890,396.393 907.256,398.560 C 901.622,400.727 897.009,402.755 897.006,403.066 C 897.003,403.377 898.912,404.702 901.250,406.010 C 907.379,409.440 915.541,417.484 919.490,423.984 C 924.063,431.513 928.703,445.705 930.510,457.697 C 933.155,475.242 931.775,508.126 927.701,524.632 C 926.661,528.846 926.130,529.543 923.744,529.817 C 921.914,530.028 920.780,529.589 920.367,528.513 C 920.025,527.622 920.749,519.833 921.978,511.206 C 929.220,460.347 918.717,422.168 894.542,411.476 C 884.314,406.953 878.068,407.244 865.500,412.832 C 863.500,413.721 861.500,414.611 859.500,415.500 C 862.672,415.687 865.843,415.873 869.015,416.060 C 876.994,416.530 879.395,417.090 883.880,419.531 C 900.520,428.588 909.004,456.249 906.084,491.925 C 903.120,528.135 895.691,562.488 885.739,586 C 884.258,589.500 882.776,593 881.295,596.500 C 882.323,596 883.351,595.500 884.379,595 C 895.407,589.638 924.262,564.004 938.691,546.750 C 942.256,542.487 945.784,539 946.530,539 C 947.276,539 948.577,539.985 949.421,541.190 C 950.814,543.179 950.789,543.644 949.146,546.238 C 945.116,552.603 926.473,572.322 915.832,581.476 C 902.193,593.208 885.628,604.429 873.687,610.025 C 859.449,616.697 853.817,616.629 846.262,609.688 C 835.180,599.507 826.161,570.164 824.346,538.389 C 823.988,532.125 823.427,527.009 823.098,527.020 C 822.769,527.031 817.550,530.905 811.500,535.629 C 799.135,545.283 793.876,548.247 786.231,549.869 C 780.537,551.077 775.869,550.631 754.762,546.864 C 750.849,546.166 746.936,545.467 743.023,544.769 C 740.258,545.474 737.494,546.179 734.729,546.884 C 724.367,549.527 715.057,549.600 707.774,547.094 C 695.839,542.988 639.089,515.085 636.060,511.834 C 632.444,507.953 634.034,500.478 639.370,496.281 C 640.173,495.649 640.977,495.017 641.780,494.385 C 638.631,491.932 635.482,489.479 632.332,487.026 C 620.532,477.836 619,475.930 619,470.442 C 619,461.836 627.566,456.261 639.252,457.261 C 642.688,457.555 646.244,458.098 647.154,458.468 C 648.615,459.062 648.849,457.972 649.154,449.141 C 649.577,436.907 650.390,435.582 661.795,428.527 C 666.257,425.767 669.591,423.234 669.204,422.899 C 668.817,422.564 663.714,420.608 657.864,418.553 C 652.014,416.498 645.889,414.002 644.251,413.006 C 640.820,410.920 637,403.743 637,399.384 C 637,397.743 640.098,387.647 643.884,376.950 C 647.670,366.253 650.895,356.825 651.049,356 C 651.203,355.175 647.093,358.573 641.915,363.550 ZM 706.224,255.884 C 704.638,254.573 691.598,247.689 677.244,240.588 C 655.932,230.044 650.170,227.600 645.823,227.256 C 640.530,226.837 600.938,232.764 592.552,235.230 C 589.932,236.001 586.543,238.379 582.962,241.961 C 581.116,243.807 579.270,245.654 577.424,247.500 C 572.304,262.667 567.183,277.833 562.063,293 C 553.615,318.025 545.349,341.102 543.695,344.282 C 542.041,347.462 537.396,353.639 533.373,358.008 C 529.350,362.377 524.876,368.285 523.431,371.137 C 516.827,384.168 513.224,411.618 514.392,440 C 515.273,461.414 517.041,478.153 518.375,477.708 C 518.967,477.511 532.287,460.896 547.975,440.785 C 563.663,420.674 578.710,401.651 581.410,398.513 C 587.317,391.648 598.126,383.397 607,378.980 C 623.337,370.848 634.787,361.222 650.677,342.263 C 660.200,330.901 660.450,330.470 665.184,317.185 C 667.833,309.751 669.859,303.525 669.685,303.351 C 669.511,303.177 666.276,304.677 662.496,306.684 C 651.791,312.369 644.379,311.385 640.322,303.741 C 639.126,301.488 638.475,297.354 638.185,290.181 C 637.787,280.325 637.658,279.820 635.319,278.931 C 631.092,277.324 627.669,277.892 620.300,281.424 C 617.919,282.565 615.537,283.706 613.156,284.847 C 613.125,290.122 613.095,295.399 613.064,300.674 C 612.959,318.834 611.776,330.383 608.949,340.823 C 604.761,356.291 598.170,364.524 593.998,359.497 C 592.972,358.261 593.486,356.533 596.902,349.747 C 599.220,345.143 601.734,338.187 602.593,334 C 604.123,326.544 605.898,305.839 605.965,294.642 C 605.999,288.994 605.917,288.804 603.662,289.370 C 600.492,290.166 597.724,287.978 598.155,285.017 C 598.441,283.051 600.719,281.618 611.500,276.625 C 628.627,268.693 630.815,268.648 651.523,275.807 C 659.786,278.663 668.156,281 670.124,281 C 677.245,281 682,278.029 682,273.580 C 682,271.736 675.495,268.339 656.334,260.177 C 634.068,250.692 632.093,250.583 607.204,257.444 C 600.064,259.412 593.514,260.751 592.649,260.419 C 590.412,259.560 589.528,256.040 591.147,254.439 C 591.891,253.703 599.597,251.279 608.271,249.051 C 633.404,242.596 637.888,243.167 667.838,256.642 C 689.270,266.285 691.953,267.235 697.820,267.262 C 707.414,267.306 712.201,260.826 706.224,255.884 ZM 577.968,446 C 576.213,427.067 574.885,419.679 573.502,421.153 C 572.453,422.271 558.875,439.631 524.172,484.227 C 519.892,489.727 519.737,490.162 520.266,495.227 C 520.569,498.127 522.030,505.900 523.512,512.500 C 529.173,537.706 537.589,558.307 545.585,566.534 C 549.284,570.340 550.511,571 553.886,571 C 557.019,571 558.523,570.323 561.089,567.757 C 567.470,561.376 572.919,545.534 576.535,522.846 C 578.465,510.737 579.387,461.309 577.968,446 ZM 723.750,236.219 C 715.790,231.458 684.593,214.703 675.647,210.385 C 667.003,206.213 665.040,205.641 659.647,205.727 C 652.740,205.837 614.825,215.022 609.049,217.985 C 605.165,219.977 599.968,225 601.790,225 C 602.416,225 611.382,223.603 621.714,221.897 C 649.600,217.292 647.791,216.940 680.500,233.330 C 695.350,240.771 708.925,247.143 710.666,247.490 C 715.271,248.409 720.719,247.107 724.071,244.286 C 727.875,241.086 727.777,238.628 723.750,236.219 ZM 660.792,486.647 C 651.544,480.327 650.349,478.823 649.216,472.085 C 648.565,468.214 648.044,467.515 644.987,466.411 C 639.949,464.592 631.892,464.687 629.165,466.597 C 624.618,469.782 626.439,472.696 638.861,482.114 C 650.114,490.646 650.291,490.735 657.361,491.388 C 661.287,491.751 665.592,492.148 666.928,492.273 C 668.614,492.430 666.739,490.711 660.792,486.647 ZM 896.524,454.500 C 893.492,440.687 887.603,430.734 880.018,426.606 C 878.349,425.697 876.679,424.790 875.010,423.881 C 870.062,424.229 865.113,424.576 860.165,424.924 C 835.966,426.624 827.060,430.601 812.500,446.212 C 802.315,457.133 795.755,461.603 773.393,472.855 C 754.478,482.373 747.944,487.387 746.390,493.581 C 745.428,497.416 747.081,501.272 750.361,502.844 C 754.575,504.864 759.505,503.249 783.496,491.990 C 818.197,475.705 832,472.318 832,480.087 C 832,482.175 829.185,484 825.963,484 C 821.712,484 805.490,490.170 790.117,497.633 C 763.027,510.785 753.597,513.276 745.478,509.423 C 744.370,508.897 743.262,508.371 742.154,507.845 C 739.190,509.838 736.225,511.832 733.261,513.825 C 718.875,523.498 715.165,523.644 702.071,515.047 C 696.443,511.352 690.053,508.444 679.369,504.716 C 666.175,500.112 663.578,499.526 656.323,499.514 C 649.556,499.503 647.660,499.863 645.323,501.606 C 639.543,505.917 639.682,506.022 672.169,521.887 C 688.851,530.033 705.105,537.666 708.288,538.849 C 719.287,542.936 723.191,542.319 768.288,529.356 C 784.741,524.627 787,524.584 787,529 C 787,531.714 785.344,532.570 773.239,536.113 C 767.045,537.926 762.545,539.708 763.239,540.075 C 766.385,541.740 780.188,542.967 784.614,541.975 C 793.422,540.001 798.309,536.518 842.134,500.989 C 872.285,476.545 871.255,477.201 887.750,471.978 C 891.167,470.896 894.583,469.814 898,468.732 C 897.974,467.360 897.947,465.988 897.920,464.616 C 897.876,462.352 897.248,457.800 896.524,454.500 ZM 724.116,162.187 C 723.498,161.188 718.987,162.481 704.407,167.839 C 665.449,182.155 659.856,184.921 648.500,195.483 C 644.392,199.303 643.946,200.022 646,199.508 C 652.055,197.994 665.585,197.871 670.132,199.289 C 674.693,200.711 674.831,200.688 679.132,197.743 C 681.534,196.098 690.700,191.271 699.500,187.018 C 708.300,182.765 716.694,178.158 718.153,176.780 C 722.537,172.641 725.737,164.810 724.116,162.187 ZM 802.067,277.812 C 800.022,275.212 796.612,273.856 753.824,258.625 C 745.932,255.816 738.039,253.006 730.147,250.197 C 728.566,250.997 726.985,251.799 725.404,252.599 C 722.795,253.920 719.838,255 718.831,255 C 717.343,255 717,255.799 717,259.266 C 717,269.272 709.471,275.292 697.106,275.176 C 690.198,275.111 690.150,275.130 689.066,278.241 C 688.466,279.962 687.346,282.074 686.577,282.935 C 685.808,283.796 683.613,289 681.698,294.500 C 679.783,300 670.744,325.454 661.609,351.065 C 652.474,376.676 645,398.367 645,399.268 C 645,402.275 647.192,405.767 649.860,407.007 C 651.312,407.682 664.425,412.492 679,417.696 C 693.575,422.900 713.527,430.070 723.337,433.628 C 739.656,439.547 741.465,440.002 744.604,438.966 C 748.986,437.520 749.402,436.673 758.963,409.723 C 768.283,383.454 796.490,305.089 800.911,293.182 C 804.516,283.474 804.691,281.148 802.067,277.812 ZM 668.140,288.672 C 664.860,288.329 659.158,286.913 655.469,285.525 C 645.864,281.910 646,281.846 646,289.953 C 646,297.267 647.275,301.507 649.760,302.461 C 652.329,303.447 665.860,296.270 673.302,289.974 C 673.743,289.601 671.420,289.015 668.140,288.672 ZM 820.009,423 C 819.133,423 773.739,452.509 736.070,477.566 C 723.107,486.189 722.442,486.500 716.953,486.500 C 715.057,486.500 713.162,486.500 711.266,486.500 C 702.380,480.577 693.495,474.655 684.609,468.732 C 657.502,450.664 655.632,449.806 657.401,456.252 C 658.153,458.993 710.250,494.700 714.835,495.617 C 716.922,496.034 719.263,495.509 722.481,493.902 C 727.744,491.273 730.500,492.021 730.500,496.077 C 730.500,500.703 719.325,504.972 712.224,503.060 C 710.131,502.496 697.218,494.369 683.528,484.999 C 669.838,475.629 658.281,468.319 657.845,468.755 C 657.409,469.191 657.409,470.887 657.846,472.524 C 658.719,475.797 661,477.514 695.346,500.745 C 712.225,512.162 715.589,514.070 717.846,513.510 C 719.305,513.148 724.474,510.212 729.331,506.985 C 732.274,505.029 735.217,503.074 738.161,501.118 C 738.245,499.311 738.330,497.503 738.414,495.696 C 738.954,484.118 746.015,477.677 773.316,463.861 C 780.044,460.456 786.772,457.051 793.500,453.646 C 798.083,449.061 802.667,444.476 807.250,439.891 C 819.575,427.561 823.020,423 820.009,423 ZM 898.244,477 C 897.666,477 892.538,478.618 886.847,480.595 C 875.051,484.693 873.082,485.997 848.714,505.843 C 842.780,510.676 836.846,515.508 830.912,520.341 C 831.086,522.534 831.260,524.728 831.433,526.921 C 831.719,530.540 832.223,537.325 832.552,542 C 835.010,576.902 846.741,607 857.887,607 C 872.307,607 888.305,567.437 895.896,513 C 898.529,494.122 899.645,477 898.244,477 Z" fill="#272D37" stroke="none" />
  <path id="17" d="M 802.067,277.812 C 804.691,281.148 804.516,283.474 800.911,293.182 C 796.490,305.089 768.283,383.454 758.963,409.723 C 749.402,436.673 748.986,437.520 744.604,438.966 C 741.465,440.002 739.656,439.547 723.337,433.628 C 713.527,430.070 693.575,422.900 679,417.696 C 664.425,412.492 651.312,407.682 649.860,407.007 C 647.192,405.767 645,402.275 645,399.268 C 645,398.367 652.474,376.676 661.609,351.065 C 670.744,325.454 679.783,300 681.698,294.500 C 683.613,289 685.808,283.796 686.577,282.935 C 687.346,282.074 688.466,279.962 689.066,278.241 C 690.150,275.130 690.198,275.111 697.106,275.176 C 709.471,275.292 717,269.272 717,259.266 C 717,255.799 717.343,255 718.831,255 C 719.838,255 722.795,253.920 725.404,252.599 C 726.985,251.799 728.566,250.997 730.147,250.197 C 738.039,253.006 745.932,255.816 753.824,258.625 C 796.612,273.856 800.022,275.212 802.067,277.812 ZM 689.016,312.513 C 687.376,315.717 687.040,317.974 687.303,324 C 687.605,330.927 688.380,333.257 697.453,354.500 C 702.856,367.150 708.124,378.397 709.161,379.495 C 711.038,381.482 711.084,381.471 719.773,376.995 C 727.055,373.244 728.500,372.104 728.500,370.109 C 728.500,365.774 725.717,365.231 719.391,368.334 C 716.270,369.865 713.399,370.754 713.010,370.309 C 712.621,369.864 708.410,360.161 703.652,348.746 C 696.449,331.466 695,327.097 695,322.644 C 695,313.356 702.033,306 710.914,306 C 718.072,306 721.968,308.643 725.698,316.029 C 727.457,319.513 729.580,322.745 730.415,323.212 C 731.427,323.779 733.935,323.052 737.938,321.031 C 744.710,317.613 748.640,317.261 753.626,319.627 C 763.531,324.327 765.481,336.624 757.851,346.274 C 754.208,350.882 754.310,354.362 758.101,354.802 C 761.129,355.154 766.279,349.963 768.747,344.073 C 770.659,339.508 770.673,329.522 768.773,325 C 763.830,313.232 751.735,307.694 739.794,311.731 C 737.892,312.374 735.990,313.017 734.088,313.660 C 733.102,312.074 732.115,310.487 731.129,308.901 C 726.854,302.024 721.307,298.678 713.340,298.171 C 702.528,297.483 694.194,302.396 689.016,312.513 ZM 739.401,358.082 C 738.575,358.768 738.034,360.492 738.199,361.914 C 738.424,363.853 739.147,364.576 741.086,364.801 C 742.508,364.966 744.232,364.425 744.918,363.599 C 747.693,360.255 742.745,355.307 739.401,358.082 Z" fill="#FFFFFF" stroke="none" />
  <path id="17" d="M 706.224,255.884 C 712.201,260.826 707.414,267.306 697.820,267.262 C 691.953,267.235 689.270,266.285 667.838,256.642 C 637.888,243.167 633.404,242.596 608.271,249.051 C 599.597,251.279 591.891,253.703 591.147,254.439 C 589.528,256.040 590.412,259.560 592.649,260.419 C 593.514,260.751 600.064,259.412 607.204,257.444 C 632.093,250.583 634.068,250.692 656.334,260.177 C 675.495,268.339 682,271.736 682,273.580 C 682,278.029 677.245,281 670.124,281 C 668.156,281 659.786,278.663 651.523,275.807 C 630.815,268.648 628.627,268.693 611.500,276.625 C 600.719,281.618 598.441,283.051 598.155,285.017 C 597.724,287.978 600.492,290.166 603.662,289.370 C 605.917,288.804 605.999,288.994 605.965,294.642 C 605.898,305.839 604.123,326.544 602.593,334 C 601.734,338.187 599.220,345.143 596.902,349.747 C 593.486,356.533 592.972,358.261 593.998,359.497 C 598.170,364.524 604.761,356.291 608.949,340.823 C 611.776,330.383 612.959,318.834 613.064,300.674 C 613.095,295.399 613.125,290.122 613.156,284.847 C 615.537,283.706 617.919,282.565 620.300,281.424 C 627.669,277.892 631.092,277.324 635.319,278.931 C 637.658,279.820 637.787,280.325 638.185,290.181 C 638.475,297.354 639.126,301.488 640.322,303.741 C 644.379,311.385 651.791,312.369 662.496,306.684 C 666.276,304.677 669.511,303.177 669.685,303.351 C 669.859,303.525 667.833,309.751 665.184,317.185 C 660.450,330.470 660.200,330.901 650.677,342.263 C 634.787,361.222 623.337,370.848 607,378.980 C 598.126,383.397 587.317,391.648 581.410,398.513 C 578.710,401.651 563.663,420.674 547.975,440.785 C 532.287,460.896 518.967,477.511 518.375,477.708 C 517.041,478.153 515.273,461.414 514.392,440 C 513.224,411.618 516.827,384.168 523.431,371.137 C 524.876,368.285 529.350,362.377 533.373,358.008 C 537.396,353.639 542.041,347.462 543.695,344.282 C 545.349,341.102 553.615,318.025 562.063,293 C 567.183,277.833 572.304,262.667 577.424,247.500 C 579.270,245.654 581.116,243.807 582.962,241.961 C 586.543,238.379 589.932,236.001 592.552,235.230 C 600.938,232.764 640.530,226.837 645.823,227.256 C 650.170,227.600 655.932,230.044 677.244,240.588 C 691.598,247.689 704.638,254.573 706.224,255.884 Z" fill="#FFFFFF" stroke="none" />
  <path id="17" d="M 896.524,454.500 C 897.248,457.800 897.876,462.352 897.920,464.616 C 897.947,465.988 897.974,467.360 898,468.732 C 894.583,469.814 891.167,470.896 887.750,471.978 C 871.255,477.201 872.285,476.545 842.134,500.989 C 798.309,536.518 793.422,540.001 784.614,541.975 C 780.188,542.967 766.385,541.740 763.239,540.075 C 762.545,539.708 767.045,537.926 773.239,536.113 C 785.344,532.570 787,531.714 787,529 C 787,524.584 784.741,524.627 768.288,529.356 C 723.191,542.319 719.287,542.936 708.288,538.849 C 705.105,537.666 688.851,530.033 672.169,521.887 C 639.682,506.022 639.543,505.917 645.323,501.606 C 647.660,499.863 649.556,499.503 656.323,499.514 C 663.578,499.526 666.175,500.112 679.369,504.716 C 690.053,508.444 696.443,511.352 702.071,515.047 C 715.165,523.644 718.875,523.498 733.261,513.825 C 736.225,511.832 739.190,509.838 742.154,507.845 C 743.262,508.371 744.370,508.897 745.478,509.423 C 753.597,513.276 763.027,510.785 790.117,497.633 C 805.490,490.170 821.712,484 825.963,484 C 829.185,484 832,482.175 832,480.087 C 832,472.318 818.197,475.705 783.496,491.990 C 759.505,503.249 754.575,504.864 750.361,502.844 C 747.081,501.272 745.428,497.416 746.390,493.581 C 747.944,487.387 754.478,482.373 773.393,472.855 C 795.755,461.603 802.315,457.133 812.500,446.212 C 827.060,430.601 835.966,426.624 860.165,424.924 C 865.113,424.576 870.062,424.229 875.010,423.881 C 876.679,424.790 878.349,425.697 880.018,426.606 C 887.603,430.734 893.492,440.687 896.524,454.500 Z" fill="#FFFFFF" stroke="none" />
  <path id="17" d="M 577.968,446 C 579.387,461.309 578.465,510.737 576.535,522.846 C 572.919,545.534 567.470,561.376 561.089,567.757 C 558.523,570.323 557.019,571 553.886,571 C 550.511,571 549.284,570.340 545.585,566.534 C 537.589,558.307 529.173,537.706 523.512,512.500 C 522.030,505.900 520.569,498.127 520.266,495.227 C 519.737,490.162 519.892,489.727 524.172,484.227 C 558.875,439.631 572.453,422.271 573.502,421.153 C 574.885,419.679 576.213,427.067 577.968,446 Z" fill="#FFFFFF" stroke="none" />
  <path id="17" d="M 898.244,477 C 899.645,477 898.529,494.122 895.896,513 C 888.305,567.437 872.307,607 857.887,607 C 846.741,607 835.010,576.902 832.552,542 C 832.223,537.325 831.719,530.540 831.433,526.921 C 831.260,524.728 831.086,522.534 830.912,520.341 C 836.846,515.508 842.780,510.676 848.714,505.843 C 873.082,485.997 875.051,484.693 886.847,480.595 C 892.538,478.618 897.666,477 898.244,477 Z" fill="#FFFFFF" stroke="none" />
  <path id="17" d="M 820.009,423 C 823.020,423 819.575,427.561 807.250,439.891 C 802.667,444.476 798.083,449.061 793.500,453.646 C 786.772,457.051 780.044,460.456 773.316,463.861 C 746.015,477.677 738.954,484.118 738.414,495.696 C 738.330,497.503 738.245,499.311 738.161,501.118 C 735.217,503.074 732.274,505.029 729.331,506.985 C 724.474,510.212 719.305,513.148 717.846,513.510 C 715.589,514.070 712.225,512.162 695.346,500.745 C 661,477.514 658.719,475.797 657.846,472.524 C 657.409,470.887 657.409,469.191 657.845,468.755 C 658.281,468.319 669.838,475.629 683.528,484.999 C 697.218,494.369 710.131,502.496 712.224,503.060 C 719.325,504.972 730.500,500.703 730.500,496.077 C 730.500,492.021 727.744,491.273 722.481,493.902 C 719.263,495.509 716.922,496.034 714.835,495.617 C 710.250,494.700 658.153,458.993 657.401,456.252 C 655.632,449.806 657.502,450.664 684.609,468.732 C 693.495,474.655 702.380,480.577 711.266,486.500 C 713.162,486.500 715.057,486.500 716.953,486.500 C 722.442,486.500 723.107,486.189 736.070,477.566 C 773.739,452.509 819.133,423 820.009,423 Z" fill="#FFFFFF" stroke="none" />
  <path id="17" d="M 723.750,236.219 C 727.777,238.628 727.875,241.086 724.071,244.286 C 720.719,247.107 715.271,248.409 710.666,247.490 C 708.925,247.143 695.350,240.771 680.500,233.330 C 647.791,216.940 649.600,217.292 621.714,221.897 C 611.382,223.603 602.416,225 601.790,225 C 599.968,225 605.165,219.977 609.049,217.985 C 614.825,215.022 652.740,205.837 659.647,205.727 C 665.040,205.641 667.003,206.213 675.647,210.385 C 684.593,214.703 715.790,231.458 723.750,236.219 Z" fill="#FFFFFF" stroke="none" />
  <path id="21" d="M 689.016,312.513 C 694.194,302.396 702.528,297.483 713.340,298.171 C 721.307,298.678 726.854,302.024 731.129,308.901 C 732.115,310.487 733.102,312.074 734.088,313.660 C 735.990,313.017 737.892,312.374 739.794,311.731 C 751.735,307.694 763.830,313.232 768.773,325 C 770.673,329.522 770.659,339.508 768.747,344.073 C 766.279,349.963 761.129,355.154 758.101,354.802 C 754.310,354.362 754.208,350.882 757.851,346.274 C 765.481,336.624 763.531,324.327 753.626,319.627 C 748.640,317.261 744.710,317.613 737.938,321.031 C 733.935,323.052 731.427,323.779 730.415,323.212 C 729.580,322.745 727.457,319.513 725.698,316.029 C 721.968,308.643 718.072,306 710.914,306 C 702.033,306 695,313.356 695,322.644 C 695,327.097 696.449,331.466 703.652,348.746 C 708.410,360.161 712.621,369.864 713.010,370.309 C 713.399,370.754 716.270,369.865 719.391,368.334 C 725.717,365.231 728.500,365.774 728.500,370.109 C 728.500,372.104 727.055,373.244 719.773,376.995 C 711.084,381.471 711.038,381.482 709.161,379.495 C 708.124,378.397 702.856,367.150 697.453,354.500 C 688.380,333.257 687.605,330.927 687.303,324 C 687.040,317.974 687.376,315.717 689.016,312.513 Z" fill="#272D37" stroke="none" />
  <path id="17" d="M 724.116,162.187 C 725.737,164.810 722.537,172.641 718.153,176.780 C 716.694,178.158 708.300,182.765 699.500,187.018 C 690.700,191.271 681.534,196.098 679.132,197.743 C 674.831,200.688 674.693,200.711 670.132,199.289 C 665.585,197.871 652.055,197.994 646,199.508 C 643.946,200.022 644.392,199.303 648.500,195.483 C 659.856,184.921 665.449,182.155 704.407,167.839 C 718.987,162.481 723.498,161.188 724.116,162.187 Z" fill="#FFFFFF" stroke="none" />
  <path id="17" d="M 660.792,486.647 C 666.739,490.711 668.614,492.430 666.928,492.273 C 665.592,492.148 661.287,491.751 657.361,491.388 C 650.291,490.735 650.114,490.646 638.861,482.114 C 626.439,472.696 624.618,469.782 629.165,466.597 C 631.892,464.687 639.949,464.592 644.987,466.411 C 648.044,467.515 648.565,468.214 649.216,472.085 C 650.349,478.823 651.544,480.327 660.792,486.647 Z" fill="#FFFFFF" stroke="none" />
  <path id="21" d="M 831.200,248.200 C 831.860,247.540 834.785,247 837.700,247 C 839.467,247 841.233,247 843,247 C 843,245.397 843,243.794 843,242.191 C 843,236.373 844.694,233.680 848.056,234.155 C 850.312,234.473 850.523,234.981 850.798,240.750 C 850.897,242.833 850.996,244.917 851.095,247 C 852.718,247 854.342,247 855.966,247 C 862.590,247 864,247.702 864,251 C 864,254.298 862.590,255 855.966,255 C 854.342,255 852.718,255 851.095,255 C 850.996,257.083 850.897,259.167 850.798,261.250 C 850.523,267.019 850.312,267.527 848.056,267.845 C 844.694,268.320 843,265.627 843,259.809 C 843,258.206 843,256.603 843,255 C 841.233,255 839.467,255 837.700,255 C 832.269,255 830,253.822 830,251 C 830,250.120 830.540,248.860 831.200,248.200 Z" fill="#272D37" stroke="none" />
  <path id="21" d="M 820.200,348.200 C 820.860,347.540 822.858,347 824.640,347 C 827.644,347 827.902,346.735 828.190,343.351 C 828.371,341.224 829.230,339.245 830.250,338.606 C 830.833,338.241 831.417,337.875 832,337.510 C 832.583,337.875 833.167,338.241 833.750,338.606 C 834.770,339.245 835.629,341.224 835.810,343.351 C 836.098,346.735 836.356,347 839.360,347 C 843.138,347 845,348.516 845,351.593 C 845,354.034 843.275,355 838.918,355 C 836.261,355 836,355.308 836,358.429 C 836,361.634 833.951,365 832,365 C 830.049,365 828,361.634 828,358.429 C 828,355.308 827.739,355 825.082,355 C 823.477,355 821.452,354.727 820.582,354.393 C 818.718,353.678 818.486,349.914 820.200,348.200 Z" fill="#272D37" stroke="none" />
  <path id="17" d="M 668.140,288.672 C 671.420,289.015 673.743,289.601 673.302,289.974 C 665.860,296.270 652.329,303.447 649.760,302.461 C 647.275,301.507 646,297.267 646,289.953 C 646,281.846 645.864,281.910 655.469,285.525 C 659.158,286.913 664.860,288.329 668.140,288.672 Z" fill="#FFFFFF" stroke="none" />
  <path id="21" d="M 779,211 C 781.652,208.348 783.569,208.478 786.608,211.517 C 788.444,213.353 788.945,214.638 788.461,216.267 C 787.654,218.984 785.247,221 782.809,221 C 780.396,221 777,217.493 777,215 C 777,213.900 777.900,212.100 779,211 Z" fill="#272D37" stroke="none" />
  <path id="21" d="M 873.200,301.200 C 873.860,300.540 875.795,300 877.500,300 C 881.322,300 883,301.565 883,305.129 C 883,308.483 880.641,311 877.500,311 C 876.204,311 874.435,310.293 873.571,309.429 C 871.711,307.569 871.501,302.899 873.200,301.200 Z" fill="#272D37" stroke="none" />
  <path id="21" d="M 612.829,420.655 C 616.505,417.328 622,419.632 622,424.500 C 622,427.517 619.517,430 616.500,430 C 611.544,430 609.173,423.964 612.829,420.655 Z" fill="#272D37" stroke="none" />
  <path id="21" d="M 830.621,200.521 C 832.570,198.572 834.886,198.865 836.388,201.250 C 836.755,201.833 837.123,202.417 837.490,203 C 837.123,203.583 836.755,204.167 836.388,204.750 C 834.835,207.216 831.869,207.542 830.316,205.418 C 828.619,203.098 828.657,202.485 830.621,200.521 Z" fill="#272D37" stroke="none" />
  <path id="21" d="M 739.401,358.082 C 742.745,355.307 747.693,360.255 744.918,363.599 C 744.232,364.425 742.508,364.966 741.086,364.801 C 739.147,364.576 738.424,363.853 738.199,361.914 C 738.034,360.492 738.575,358.768 739.401,358.082 Z" fill="#272D37" stroke="none" />
  <path id="21" d="M 831.636,295.309 C 833.714,294.511 836.393,296.169 836.859,298.541 C 837.362,301.102 834.255,303.207 831.862,301.926 C 829.551,300.689 829.397,296.168 831.636,295.309 Z" fill="#272D37" stroke="none" />
</svg>
