<?xml version="1.0" encoding="UTF-8"?>
<svg width="1408" height="768" viewBox="0 0 1408 768" xmlns="http://www.w3.org/2000/svg">
  <path id="11" d="M 0,768 C 0,512 0,256 0,0 C 469.333,0 938.667,0 1408,0 C 1408,256 1408,512 1408,768 C 938.667,768 469.333,768 0,768 ZM 757,204 C 755.750,201.959 754.500,199.918 753.250,197.877 C 743.548,182.036 726.586,172.926 707.040,173.058 C 686.104,173.199 668.484,183.194 656.779,201.568 C 644.986,220.080 643.140,230.934 641.393,292 C 640.114,336.704 644.174,353.210 660.470,369.554 C 669.760,378.872 678.675,383.783 691.261,386.519 C 700.028,388.425 702.289,388.049 701.820,384.765 C 701.549,382.866 700.653,382.401 696,381.745 C 689.067,380.767 679.409,377.590 675.500,375.001 C 674.500,374.339 673.500,373.675 672.500,373.013 C 674.190,373.011 675.879,373.009 677.568,373.007 C 690.259,372.990 699.480,366.505 702.051,355.787 C 702.462,354.074 702.873,352.362 703.284,350.649 C 709.913,351.549 716.542,352.451 723.172,353.351 C 734.615,354.905 746.540,357.151 751.256,358.641 C 758.537,360.941 759.562,361.056 760.434,359.673 C 761.144,358.547 760.904,357.552 759.565,356.072 C 757.804,354.126 757.772,352.950 758.897,331.764 C 759.547,319.519 760.730,296.450 761.526,280.500 C 762.322,264.550 763.426,244.035 763.979,234.912 C 765.969,202.090 760.590,184.637 743.018,166.902 C 730.796,154.566 718.450,147.958 701.073,144.449 C 689.575,142.128 670.426,142.853 660.500,145.987 C 626.877,156.603 605.058,188.763 602.483,231.500 C 602.152,237 600.813,265.282 599.508,294.349 C 598.203,323.416 596.853,347.480 596.509,347.824 C 596.165,348.168 593.096,349.018 589.691,349.712 C 575.690,352.566 562.979,362.205 556.881,374.591 C 555.829,376.727 554.777,378.864 553.725,381 C 551.354,381.002 548.984,381.004 546.613,381.006 C 525.149,381.023 512.026,388.076 504.272,403.762 C 503.015,406.306 501.757,408.849 500.500,411.393 C 500.402,431.820 500.305,452.246 500.207,472.673 C 500.109,493.100 500.012,513.526 499.914,533.953 C 494.178,534.044 488.443,534.136 482.707,534.227 C 466.258,534.488 465.500,534.588 465.500,536.500 C 465.500,538.464 466.254,538.505 507.948,538.761 C 552.719,539.036 551.951,538.952 551.985,543.616 C 551.993,544.780 553.575,548.881 555.501,552.730 C 565.389,572.494 586.911,579.961 606.436,570.400 C 610.604,568.359 615.586,564.028 626.059,553.336 C 630.738,548.560 635.416,543.782 640.095,539.006 C 690.496,538.922 740.897,538.837 791.298,538.753 C 941.749,538.501 942.500,538.490 942.500,536.500 C 942.500,534.521 941.747,534.497 869.741,534.243 C 845.488,534.157 821.236,534.073 796.983,533.987 C 796.473,518.239 795.963,502.491 795.453,486.743 C 794.611,460.759 793.685,438.712 793.394,437.750 C 792.740,435.584 790.146,435.456 789.343,437.549 C 788.869,438.785 790.447,513.244 791.292,529.500 C 791.361,530.833 791.431,532.167 791.500,533.500 C 785.229,533.591 778.959,533.681 772.688,533.772 C 766.417,533.863 760.147,533.954 753.876,534.045 C 753.980,527.927 754.084,521.807 754.188,515.689 C 754.292,509.571 754.396,503.452 754.500,497.334 C 755.581,495.695 756.661,494.056 757.742,492.417 C 759.525,489.713 762.663,484.131 764.716,480.012 C 768.083,473.257 768.486,471.593 768.830,463.012 C 769.276,451.908 767.805,444.698 765.195,445.201 C 763.710,445.487 763.500,447.073 763.500,458.014 C 763.500,469.588 763.296,470.935 760.710,476.458 C 759.176,479.735 756.785,483.904 755.397,485.724 C 749.548,493.393 748.668,497.121 748.193,516.250 C 748.046,522.167 747.899,528.083 747.752,534 C 730.766,534 713.779,534 696.793,534 C 666.357,534 645.968,533.631 646.167,533.084 C 646.350,532.580 662.025,516.099 681,496.459 C 699.975,476.819 715.632,459.994 715.794,459.070 C 715.956,458.146 715.168,456.557 714.044,455.540 C 711.423,453.168 711.467,451.834 714.250,449.299 C 718.103,445.790 720.156,445.204 736.049,443.077 C 744.547,441.939 753.264,440.514 755.421,439.910 C 760.162,438.582 764.685,434.297 765.483,430.378 C 765.805,428.795 766.504,426.118 767.035,424.429 C 767.566,422.740 768,419.931 768,418.186 C 768,417.129 768,416.071 768,415.014 C 770.475,415.845 772.951,416.676 775.426,417.507 C 779.510,418.878 784.011,420 788,420 C 787.583,420.361 787.167,420.722 786.750,421.083 C 785.845,421.867 783.568,421.704 778.500,420.492 C 776.167,419.934 773.833,419.375 771.500,418.817 C 770.917,419.957 770.333,421.096 769.750,422.236 C 766.419,428.744 768.202,438 772.787,438 C 773.599,438 775.750,439.575 777.565,441.500 C 779.380,443.425 781.523,445 782.326,445 C 783.129,445 784.056,445.703 784.386,446.563 C 785.563,449.630 786.932,446.835 786.795,441.644 C 786.631,435.399 787.307,434 790.488,434 C 794.736,434 796,436.431 796,444.596 C 796,451.556 796.160,452.111 798.415,452.968 C 799.910,453.536 802.181,453.513 804.378,452.906 C 807.434,452.062 808.222,452.222 810.056,454.056 C 811.324,455.324 812.955,455.983 814.091,455.686 C 815.140,455.412 816.214,455.536 816.477,455.962 C 817.181,457.101 828.287,457.007 829.680,455.851 C 830.336,455.307 832.990,454.742 835.579,454.596 C 838.574,454.427 840.728,453.725 841.503,452.665 C 842.173,451.749 844.033,451 845.638,451 C 847.318,451 849.282,450.152 850.268,449 C 851.210,447.900 852.637,447 853.440,447 C 854.243,447 856.563,445.010 858.596,442.578 C 860.629,440.146 863.123,437.939 864.138,437.674 C 865.153,437.409 866.775,435.797 867.742,434.093 C 868.709,432.389 870.315,430.732 871.311,430.411 C 872.307,430.090 873.616,428.740 874.221,427.413 C 874.826,426.086 875.908,425 876.625,425 C 878.520,425 879.891,421.882 879.317,418.879 C 878.924,416.822 879.279,416.160 881.016,415.706 C 882.270,415.378 883.008,414.568 882.738,413.816 C 882.478,413.092 882.983,411.253 883.860,409.729 C 885.130,407.524 885.215,406.573 884.273,405.065 C 883.332,403.559 883.386,402.925 884.535,401.971 C 885.408,401.246 885.754,399.870 885.409,398.495 C 884.720,395.752 886.728,394.129 887.695,396.648 C 888.182,397.916 888.680,398.114 889.438,397.340 C 890.190,396.573 889.929,395.620 888.544,394.073 C 886.973,392.318 886.814,391.528 887.731,390.059 C 888.359,389.053 888.623,387.276 888.318,386.110 C 888.013,384.944 888.221,383.430 888.779,382.745 C 889.893,381.379 889.738,369.002 888.583,367.134 C 888.187,366.492 887.353,366.282 886.731,366.666 C 885.967,367.138 885.600,366.156 885.600,363.639 C 885.600,361.590 885.026,359.437 884.326,358.856 C 883.626,358.275 882.759,356.157 882.400,354.150 C 882.041,352.143 881.028,349.679 880.149,348.674 C 879.270,347.669 878.090,345.458 877.526,343.760 C 876.891,341.848 875.739,340.583 874.500,340.436 C 873.323,340.296 871.883,338.819 871,336.849 C 870.175,335.007 867.746,331.821 865.603,329.768 C 862.608,326.900 861.161,326.172 859.353,326.626 C 857.431,327.108 857,326.824 857,325.077 C 857,323.900 856.213,322.642 855.250,322.281 C 854.287,321.920 852.965,320.921 852.311,320.062 C 851.323,318.764 850.774,318.712 849.061,319.758 C 848.374,320.177 847.687,320.598 847,321.017 C 846.250,320.598 845.500,320.177 844.750,319.758 C 843.513,319.066 842.110,317.883 841.633,317.130 C 840.902,315.975 840.634,315.974 839.925,317.122 C 839.255,318.206 838.831,318.231 837.842,317.242 C 837.159,316.559 834.778,315.988 832.550,315.973 C 830.323,315.958 827.263,315.180 825.750,314.242 C 823.319,312.735 823,312.718 823,314.098 C 823,315.979 818.882,316.097 817.700,314.250 C 816.718,312.715 813.361,312.607 812.450,314.081 C 812.083,314.676 810.730,314.898 809.444,314.575 C 807.855,314.176 806.809,314.521 806.177,315.649 C 805.526,316.812 804.687,317.069 803.374,316.506 C 798.809,314.549 789.350,318.173 789.728,321.734 C 789.865,323.031 788.966,324.668 787.469,325.846 C 785.427,327.452 784.557,327.603 782.615,326.687 C 780.452,325.666 780.250,325.790 780.250,328.136 C 780.250,329.911 779.595,330.873 778.125,331.257 C 776.956,331.563 776,332.530 776,333.406 C 776,334.412 775.134,335 773.652,335 C 771.729,335 771.289,335.543 771.219,338 C 771.150,340.440 770.702,341.003 768.817,341.017 C 766.078,341.037 762.902,344.214 761.059,348.776 C 759.886,351.680 759.944,352.280 761.563,354.069 C 763.035,355.696 763.206,356.695 762.445,359.217 C 761.577,362.093 761.140,362.352 757.063,362.423 C 752.883,362.495 752.575,362.696 751.749,365.886 C 750.432,370.970 751.993,371.544 757.623,368.044 C 760.853,366.036 764.572,364.730 768.447,364.243 C 770.415,363.995 772.382,363.748 774.350,363.500 C 774.726,361.833 775.102,360.167 775.478,358.500 C 777.320,350.331 778.965,347.748 785.505,342.747 C 792.534,337.372 797.675,335.182 799,337 C 797.401,337.827 795.803,338.653 794.204,339.480 C 783.477,345.026 777,353.380 777,361.671 C 777,363.018 777,364.364 777,365.711 C 774.763,365.920 772.525,366.129 770.288,366.338 C 765.450,366.790 762.309,367.747 759.038,369.769 C 755.595,371.897 751.392,373.110 741.626,374.795 C 734.545,376.017 726.798,377.880 724.409,378.937 C 718.549,381.529 711.105,388.656 702.930,399.500 C 699.198,404.450 693.204,411.397 689.608,414.937 C 683.381,421.068 682.981,421.293 681.206,419.687 C 680.181,418.759 678.703,418.016 677.921,418.035 C 677.139,418.054 663.450,429.788 647.500,444.111 C 637.833,452.791 628.167,461.473 618.500,470.153 C 618.333,462.878 618.167,455.601 618,448.326 C 617.503,426.625 617.487,426.498 615.250,426.180 C 614.500,426.073 613.750,425.968 613,425.861 C 613,434.033 613,442.205 613,450.377 C 613,458.549 613,466.721 613,474.893 C 609.083,478.469 605.167,482.046 601.250,485.622 C 593.474,492.722 589.500,497.053 589.500,498.426 C 589.500,499.702 590.147,500.500 591.181,500.500 C 592.594,500.500 622.690,474.039 667.684,433.237 C 671.089,430.149 674.494,427.063 677.899,423.975 C 683.233,429.718 688.567,435.460 693.901,441.203 C 699.235,446.946 704.569,452.688 709.903,458.431 C 707.842,460.609 705.781,462.788 703.720,464.966 C 673.922,496.458 611.989,560.155 608.667,562.726 C 602.583,567.436 596.232,569.284 587.674,568.834 C 574.874,568.161 565.557,561.617 559.651,549.151 C 558.601,546.934 557.550,544.717 556.500,542.500 C 556.500,517.333 556.500,492.167 556.500,467 C 556.500,391.903 556.512,391.462 558.709,384.479 C 563.867,368.086 577.286,356.568 593.665,354.473 C 598.049,353.912 599.083,354.210 604.758,357.677 C 608.200,359.779 617.127,366.900 624.595,373.500 C 632.064,380.100 641.172,387.696 644.837,390.380 C 656.314,398.787 675.896,407 684.464,407 C 686.637,407 687.080,406.595 686.820,404.841 C 686.556,403.055 685.118,402.316 678.500,400.562 C 662.254,396.256 649.867,388.745 630.500,371.458 C 623.900,365.567 614.900,358.187 610.500,355.059 C 607.833,353.163 605.167,351.267 602.500,349.371 C 602.590,347.392 602.680,345.415 602.770,343.436 C 602.919,340.171 603.931,316.800 605.018,291.500 C 607.571,232.104 608.521,219.205 611.060,209.511 C 618.763,180.101 636.574,159.548 661.500,151.303 C 668.565,148.966 671.136,148.650 683.500,148.599 C 695.220,148.551 698.801,148.914 705.487,150.832 C 720.553,155.154 733.923,163.319 742.900,173.678 C 749.096,180.828 755.908,195.476 757,204 ZM 724.912,573.861 C 722.752,576.528 722.539,578.269 724.030,581.055 C 725.639,584.061 729.013,585.382 754.577,593.012 C 762.551,595.392 770.526,597.772 778.500,600.152 C 779.930,601.774 781.362,603.398 782.792,605.020 C 787.744,610.636 795.236,614 802.794,614 C 820.716,614 824.952,601.208 809.662,593.262 C 805.238,590.963 803.071,590.540 794.512,590.300 C 791.183,590.207 787.854,590.113 784.525,590.020 C 776.854,586.933 769.183,583.847 761.512,580.760 C 741.644,572.765 737.703,571.500 732.662,571.500 C 727.733,571.500 726.526,571.868 724.912,573.861 ZM 773.438,559.628 C 769.156,563.910 768.943,567.591 772.717,572.076 C 777.288,577.508 789.825,581.952 806.493,584.050 C 818.749,585.593 848.933,584.752 858.500,582.601 C 875.418,578.797 884.400,573.273 884.400,566.671 C 884.400,559.314 875.405,553.807 857,549.896 C 841.928,546.693 813.143,546.674 798.221,549.857 C 784.420,552.801 777.561,555.505 773.438,559.628 ZM 791.636,300.309 C 790.710,300.664 790,302.050 790,303.500 C 790,306.416 792.464,307.828 794.886,306.300 C 795.774,305.740 796.500,304.480 796.500,303.500 C 796.500,301.259 793.792,299.482 791.636,300.309 ZM 805.188,257.212 C 803,259.400 804.569,260.495 810.329,260.800 C 815.381,261.067 816,260.888 816,259.157 C 816,258.088 815.288,256.941 814.418,256.607 C 811.754,255.585 806.469,255.931 805.188,257.212 ZM 810.729,243.250 C 810.179,244.823 811.866,247.319 815.309,250.028 C 820.221,253.892 821.879,249.571 817.313,244.805 C 814.487,241.855 811.466,241.142 810.729,243.250 ZM 813.521,269.415 C 809.634,273.080 809.315,275.300 812.603,275.790 C 815.058,276.156 820.305,270.822 819.842,268.432 C 819.266,265.462 817.406,265.750 813.521,269.415 ZM 825.621,236.713 C 825.229,237.105 825.041,239.468 825.204,241.963 C 825.454,245.799 825.848,246.550 827.750,246.820 C 829.852,247.119 830,246.774 830,241.570 C 830,236.836 829.725,236 828.167,236 C 827.159,236 826.013,236.321 825.621,236.713 ZM 826.408,271.076 C 825.373,271.935 824.997,273.756 825.202,276.912 C 825.455,280.799 825.844,281.549 827.750,281.820 C 829.850,282.118 830,281.772 830,276.629 C 830,270.783 828.869,269.034 826.408,271.076 ZM 831.452,493.040 C 828.615,495.395 830.434,499.357 834.113,498.837 C 836.021,498.567 836.500,497.901 836.500,495.514 C 836.500,492.195 833.966,490.953 831.452,493.040 ZM 837.974,245.027 C 834.609,248.629 834.433,249.284 836.393,250.911 C 837.496,251.826 838.558,251.339 841.490,248.574 C 843.527,246.653 845,244.501 844.764,243.791 C 843.940,241.317 840.928,241.865 837.974,245.027 ZM 835.667,266.667 C 834.332,268.002 835.070,269.676 838.434,272.936 C 840.581,275.017 842.455,276.040 843.434,275.664 C 845.942,274.702 845.263,272.438 841.465,269.104 C 837.845,265.926 836.834,265.500 835.667,266.667 ZM 840.533,256.626 C 839.636,256.970 839.041,257.983 839.210,258.876 C 839.572,260.782 848.617,261.783 850.297,260.103 C 853.006,257.394 845.499,254.720 840.533,256.626 ZM 874.632,467.701 C 872.744,469.589 874.712,471.514 878.833,471.811 C 883.479,472.146 886.215,470.722 885.334,468.427 C 884.760,466.932 875.995,466.338 874.632,467.701 ZM 879.518,292.775 C 877.428,296.524 878.390,300.949 882.013,304.250 C 885.672,307.584 889.710,307.803 893.440,304.869 C 897.178,301.929 898.322,298.506 896.953,294.359 C 895.578,290.192 892.565,288 888.212,288 C 883.916,288 881.414,289.373 879.518,292.775 ZM 879.625,245.709 C 878.445,246.889 879.389,250.227 881.231,251.381 C 883.624,252.881 886.470,250.058 885.535,247.112 C 884.877,245.040 881.174,244.160 879.625,245.709 ZM 888.512,454.357 C 887.265,454.836 886.960,456.080 887.195,459.740 C 887.451,463.732 887.823,464.500 889.500,464.500 C 891.148,464.500 891.555,463.728 891.814,460.114 C 892.156,455.333 891.040,453.387 888.512,454.357 ZM 887.621,474.713 C 887.229,475.105 887.041,477.468 887.204,479.963 C 887.454,483.799 887.848,484.550 889.750,484.820 C 891.852,485.119 892,484.774 892,479.570 C 892,474.836 891.725,474 890.167,474 C 889.159,474 888.013,474.321 887.621,474.713 ZM 894.632,467.701 C 894.246,468.087 894.065,469.099 894.229,469.951 C 894.451,471.102 895.807,471.500 899.514,471.500 C 903.924,471.500 904.537,471.240 904.820,469.250 C 905.114,467.179 904.749,467 900.236,467 C 897.539,467 895.018,467.315 894.632,467.701 ZM 913.636,404.309 C 912.710,404.664 912,406.050 912,407.500 C 912,410.416 914.464,411.828 916.886,410.300 C 917.774,409.740 918.500,408.480 918.500,407.500 C 918.500,405.259 915.792,403.482 913.636,404.309 Z" fill="#FFFFFF" stroke="none" />
  <path id="46" d="M 788,420 C 784.011,420 779.510,418.878 775.426,417.507 C 772.951,416.676 770.475,415.845 768,415.014 C 768,416.071 768,417.129 768,418.186 C 768,419.931 767.566,422.740 767.035,424.429 C 766.504,426.118 765.805,428.795 765.483,430.378 C 764.685,434.297 760.162,438.582 755.421,439.910 C 753.264,440.514 744.547,441.939 736.049,443.077 C 720.156,445.204 718.103,445.790 714.250,449.299 C 711.467,451.834 711.423,453.168 714.044,455.540 C 715.168,456.557 715.956,458.146 715.794,459.070 C 715.632,459.994 699.975,476.819 681,496.459 C 662.025,516.099 646.350,532.580 646.167,533.084 C 645.968,533.631 666.357,534 696.793,534 C 713.779,534 730.766,534 747.752,534 C 747.899,528.083 748.046,522.167 748.193,516.250 C 748.668,497.121 749.548,493.393 755.397,485.724 C 756.785,483.904 759.176,479.735 760.710,476.458 C 763.296,470.935 763.500,469.588 763.500,458.014 C 763.500,447.073 763.710,445.487 765.195,445.201 C 767.805,444.698 769.276,451.908 768.830,463.012 C 768.486,471.593 768.083,473.257 764.716,480.012 C 762.663,484.131 759.525,489.713 757.742,492.417 C 756.661,494.056 755.581,495.695 754.500,497.334 C 754.396,503.452 754.292,509.571 754.188,515.689 C 754.084,521.807 753.980,527.927 753.876,534.045 C 760.147,533.954 766.417,533.863 772.688,533.772 C 778.959,533.681 785.229,533.591 791.500,533.500 C 791.431,532.167 791.361,530.833 791.292,529.500 C 790.447,513.244 788.869,438.785 789.343,437.549 C 790.146,435.456 792.740,435.584 793.394,437.750 C 793.685,438.712 794.611,460.759 795.453,486.743 C 795.963,502.491 796.473,518.239 796.983,533.987 C 821.236,534.073 845.488,534.157 869.741,534.243 C 941.747,534.497 942.500,534.521 942.500,536.500 C 942.500,538.490 941.749,538.501 791.298,538.753 C 740.897,538.837 690.496,538.922 640.095,539.006 C 635.416,543.782 630.738,548.560 626.059,553.336 C 615.586,564.028 610.604,568.359 606.436,570.400 C 586.911,579.961 565.389,572.494 555.501,552.730 C 553.575,548.881 551.993,544.780 551.985,543.616 C 551.951,538.952 552.719,539.036 507.948,538.761 C 466.254,538.505 465.500,538.464 465.500,536.500 C 465.500,534.588 466.258,534.488 482.707,534.227 C 488.443,534.136 494.178,534.044 499.914,533.953 C 500.012,513.526 500.109,493.100 500.207,472.673 C 500.305,452.246 500.402,431.820 500.500,411.393 C 501.757,408.849 503.015,406.306 504.272,403.762 C 512.026,388.076 525.149,381.023 546.613,381.006 C 548.984,381.004 551.354,381.002 553.725,381 C 554.777,378.864 555.829,376.727 556.881,374.591 C 562.979,362.205 575.690,352.566 589.691,349.712 C 593.096,349.018 596.165,348.168 596.509,347.824 C 596.853,347.480 598.203,323.416 599.508,294.349 C 600.813,265.282 602.152,237 602.483,231.500 C 605.058,188.763 626.877,156.603 660.500,145.987 C 670.426,142.853 689.575,142.128 701.073,144.449 C 718.450,147.958 730.796,154.566 743.018,166.902 C 760.590,184.637 765.969,202.090 763.979,234.912 C 763.426,244.035 762.322,264.550 761.526,280.500 C 760.730,296.450 759.547,319.519 758.897,331.764 C 757.772,352.950 757.804,354.126 759.565,356.072 C 760.904,357.552 761.144,358.547 760.434,359.673 C 759.562,361.056 758.537,360.941 751.256,358.641 C 746.540,357.151 734.615,354.905 723.172,353.351 C 716.542,352.451 709.913,351.549 703.284,350.649 C 702.873,352.362 702.462,354.074 702.051,355.787 C 699.480,366.505 690.259,372.990 677.568,373.007 C 675.879,373.009 674.190,373.011 672.500,373.013 C 673.500,373.675 674.500,374.339 675.500,375.001 C 679.409,377.590 689.067,380.767 696,381.745 C 700.653,382.401 701.549,382.866 701.820,384.765 C 702.289,388.049 700.028,388.425 691.261,386.519 C 678.675,383.783 669.760,378.872 660.470,369.554 C 644.174,353.210 640.114,336.704 641.393,292 C 643.140,230.934 644.986,220.080 656.779,201.568 C 668.484,183.194 686.104,173.199 707.040,173.058 C 726.586,172.926 743.548,182.036 753.250,197.877 C 754.500,199.918 755.750,201.959 757,204 C 755.908,195.476 749.096,180.828 742.900,173.678 C 733.923,163.319 720.553,155.154 705.487,150.832 C 698.801,148.914 695.220,148.551 683.500,148.599 C 671.136,148.650 668.565,148.966 661.500,151.303 C 636.574,159.548 618.763,180.101 611.060,209.511 C 608.521,219.205 607.571,232.104 605.018,291.500 C 603.931,316.800 602.919,340.171 602.770,343.436 C 602.680,345.415 602.590,347.392 602.500,349.371 C 605.167,351.267 607.833,353.163 610.500,355.059 C 614.900,358.187 623.900,365.567 630.500,371.458 C 649.867,388.745 662.254,396.256 678.500,400.562 C 685.118,402.316 686.556,403.055 686.820,404.841 C 687.080,406.595 686.637,407 684.464,407 C 675.896,407 656.314,398.787 644.837,390.380 C 641.172,387.696 632.064,380.100 624.595,373.500 C 617.127,366.900 608.200,359.779 604.758,357.677 C 599.083,354.210 598.049,353.912 593.665,354.473 C 577.286,356.568 563.867,368.086 558.709,384.479 C 556.512,391.462 556.500,391.903 556.500,467 C 556.500,492.167 556.500,517.333 556.500,542.500 C 557.550,544.717 558.601,546.934 559.651,549.151 C 565.557,561.617 574.874,568.161 587.674,568.834 C 596.232,569.284 602.583,567.436 608.667,562.726 C 611.989,560.155 673.922,496.458 703.720,464.966 C 705.781,462.788 707.842,460.609 709.903,458.431 C 704.569,452.688 699.235,446.946 693.901,441.203 C 688.567,435.460 683.233,429.718 677.899,423.975 C 674.494,427.063 671.089,430.149 667.684,433.237 C 622.690,474.039 592.594,500.500 591.181,500.500 C 590.147,500.500 589.500,499.702 589.500,498.426 C 589.500,497.053 593.474,492.722 601.250,485.622 C 605.167,482.046 609.083,478.469 613,474.893 C 613,466.721 613,458.549 613,450.377 C 613,442.205 613,434.033 613,425.861 C 613.750,425.968 614.500,426.073 615.250,426.180 C 617.487,426.498 617.503,426.625 618,448.326 C 618.167,455.601 618.333,462.878 618.500,470.153 C 628.167,461.473 637.833,452.791 647.500,444.111 C 663.450,429.788 677.139,418.054 677.921,418.035 C 678.703,418.016 680.181,418.759 681.206,419.687 C 682.981,421.293 683.381,421.068 689.608,414.937 C 693.204,411.397 699.198,404.450 702.930,399.500 C 711.105,388.656 718.549,381.529 724.409,378.937 C 726.798,377.880 734.545,376.017 741.626,374.795 C 751.392,373.110 755.595,371.897 759.038,369.769 C 762.309,367.747 765.450,366.790 770.288,366.338 C 772.525,366.129 774.763,365.920 777,365.711 C 777,364.364 777,363.018 777,361.671 C 777,353.380 783.477,345.026 794.204,339.480 C 795.803,338.653 797.401,337.827 799,337 C 823.584,331.145 845.656,334.310 858.822,345.579 C 865.709,351.474 867.001,355.052 866.996,368.210 C 866.990,386.008 863.272,404.582 857.388,416.213 C 850.356,430.113 836.241,437.868 820.050,436.726 C 809.230,435.963 802.124,432.961 794.433,425.903 C 792.289,423.935 790.144,421.968 788,420 ZM 536.618,387 C 526.440,387 513.414,396.227 508.670,406.799 C 507.790,408.760 506.911,410.721 506.031,412.682 C 506.021,432.318 506.010,451.955 506,471.591 C 505.983,503.991 505.977,531.287 505.985,532.250 C 505.998,533.760 507.030,534 513.500,534 C 516,534 518.500,534 521,534 C 521,515.045 521,496.091 521,477.136 C 521,443.267 521.406,418.094 522.005,414.886 C 523.589,406.396 528.333,397.810 534.605,392.078 C 536.457,390.385 538.309,388.693 540.161,387 C 538.980,387 537.799,387 536.618,387 ZM 549.898,388.472 C 545.959,389.623 537.302,395.915 534.373,399.755 C 532.869,401.727 530.605,405.851 529.343,408.920 C 528.578,410.780 527.812,412.640 527.047,414.500 C 527.039,434.417 527.032,454.333 527.024,474.250 C 527.016,494.167 527.008,514.083 527,534 C 531,534 535,534 539,534 C 543,534 547,534 551,534 C 551,510.708 551,487.417 551,464.125 C 551,425.694 551.292,392.793 551.648,391.011 C 552.259,387.958 552.158,387.812 549.898,388.472 ZM 751.471,233.094 C 745.415,229.881 734.187,217.756 730.500,210.447 C 728.850,207.176 727.400,204.325 727.278,204.111 C 727.156,203.897 724.605,206.214 721.609,209.258 C 714.603,216.376 709.039,220.161 697.643,225.559 C 686.911,230.643 673.985,234.317 660.833,236.021 C 655.700,236.686 651.008,237.362 650.406,237.524 C 649.204,237.847 648.599,245.968 646.956,283.858 C 645.336,321.225 647.231,338.566 654.514,353.028 C 659.939,363.801 665.913,367.458 678.014,367.416 C 686.215,367.387 691.763,364.546 695.055,358.689 C 696.896,355.414 697.433,352.633 697.793,344.538 C 697.942,341.180 698.093,337.822 698.242,334.464 C 696.357,334.069 694.471,333.672 692.586,333.277 C 683.685,331.410 674.563,326.336 666.397,318.710 C 662.321,314.904 658.031,310.449 656.864,308.810 C 654.909,306.065 654.870,305.702 656.360,304.212 C 657.850,302.722 658.550,303.191 665.239,310.167 C 687.702,333.593 710.269,335.135 729.796,314.578 C 738.188,305.743 743.915,295.878 748.020,283.187 C 751.047,273.830 754.698,254.365 753.628,253.295 C 753.313,252.980 750.748,252.123 747.930,251.392 C 744.019,250.377 741.623,250.317 737.807,251.135 C 734.357,251.875 732.486,251.886 731.771,251.171 C 730.003,249.403 731.719,247.172 735.695,246.068 C 740.579,244.712 744.028,244.726 749.595,246.128 C 752.060,246.749 754.221,247.086 754.399,246.878 C 754.577,246.670 755.001,244.020 755.342,240.988 C 755.549,239.151 755.754,237.313 755.961,235.476 C 754.464,234.682 752.968,233.888 751.471,233.094 ZM 756.296,222 C 755.185,211.877 749.656,200.551 741.866,192.439 C 727,176.958 703.540,173.657 682.740,184.120 C 668.484,191.291 655.207,209.944 650.616,229.250 C 649.814,232.624 650.597,232.690 664.074,230.392 C 690.283,225.922 712.352,214.299 722.440,199.652 C 724.581,196.543 726.955,194 727.717,194 C 728.479,194 729.782,195.688 730.614,197.750 C 733.787,205.621 737.146,211.903 740.595,216.421 C 744.525,221.568 754.888,230.188 756.183,229.387 C 757.002,228.881 757.008,228.488 756.296,222 ZM 769.415,388.329 C 768.543,387.994 760.449,389.230 751.429,391.075 C 739.092,393.598 734.745,394.145 733.882,393.282 C 731.616,391.016 733.823,389.260 740.526,387.995 C 746.761,386.819 747.311,386.499 748.665,383.259 C 749.464,381.348 749.839,379.506 749.500,379.167 C 749.161,378.828 744.084,379.533 738.217,380.734 C 724.065,383.630 719.403,386.880 708.271,401.611 C 703.745,407.600 697.026,415.250 693.340,418.612 C 691.106,420.649 688.872,422.687 686.638,424.724 C 687.282,425.540 687.925,426.355 688.569,427.171 C 689.631,428.517 694.292,433.727 698.927,438.749 C 701.736,441.793 704.545,444.836 707.354,447.880 C 708.335,447.055 709.316,446.229 710.297,445.404 C 715.350,441.153 718.233,440.200 731.052,438.555 C 749.267,436.217 754.965,434.941 757.631,432.596 C 760.144,430.387 761.934,424.234 762.608,415.500 C 763.850,399.397 763.969,398.951 767.598,396.810 C 770.238,395.252 771,394.145 771,391.870 C 771,390.115 770.364,388.693 769.415,388.329 ZM 753.004,285.167 C 744.387,311.046 728.835,328.388 710,333.120 C 707.833,333.664 705.667,334.209 703.500,334.753 C 703.400,336.450 703.299,338.148 703.199,339.845 C 702.842,345.881 700.970,345.127 723.500,348.014 C 732.300,349.142 742.343,350.770 745.817,351.632 C 749.291,352.494 752.259,353.043 752.414,352.850 C 752.788,352.384 756.066,285.621 755.967,280.500 C 755.896,276.832 755.650,277.220 753.004,285.167 ZM 857.046,379.466 C 840.049,391.943 812.701,393.328 792.674,382.725 C 789.470,381.029 785.279,377.809 783.360,375.570 C 779.905,371.539 779.807,371.500 773.140,371.571 C 764.882,371.658 759.236,374.456 756.118,380.004 C 754.953,382.077 754,384.098 754,384.495 C 754,386.129 759.374,383.709 761.588,381.078 C 763.052,379.338 765.712,377.806 768.480,377.109 C 773.347,375.883 780.441,376.557 781.811,378.375 C 782.278,378.994 783.694,384.675 784.958,391 C 788.508,408.757 788.436,407.895 786.423,408.668 C 784.796,409.292 776.165,407.455 771.750,405.544 C 770.345,404.936 770,405.284 770,407.310 C 770,410.250 773.990,412.108 785.332,414.449 C 791.436,415.709 792.672,416.388 796.933,420.833 C 802.723,426.872 807.595,429.476 815.930,430.987 C 826.870,432.971 837.336,430.201 845.026,423.287 C 850.681,418.202 853.726,412.892 856.913,402.558 C 858.664,396.880 861.980,379.988 861.996,376.665 C 861.998,376.206 859.771,377.466 857.046,379.466 ZM 781.365,400.470 C 781.153,399.903 780.192,395.628 779.229,390.970 C 777.579,382.987 777.320,382.482 774.739,382.184 C 771.360,381.794 771.323,382.406 774.500,386.182 C 777.311,389.523 777.723,393.662 775.532,396.559 C 773.313,399.492 773.685,400.694 777.187,401.915 C 780.364,403.023 782.095,402.424 781.365,400.470 ZM 859.703,354.722 C 848.174,335.678 802.780,333.810 787.006,351.730 C 782.125,357.276 781.277,361.577 783.898,367.502 C 784.992,369.976 786.312,372 786.830,372 C 788.560,372 790.748,365.577 791.430,358.500 C 792.159,350.937 792.945,349.381 795.536,350.375 C 796.994,350.934 797.115,352.065 796.486,359.258 C 796.059,364.135 794.972,369.062 793.823,371.326 C 792.302,374.323 792.137,375.461 793.063,376.576 C 795.169,379.113 795.735,378.135 797.011,369.750 C 799.058,356.298 800.807,348.764 802.209,347.362 C 804.515,345.056 809.472,344.615 811.401,346.544 C 812.835,347.978 813.016,349.338 812.461,354.521 C 811.623,362.345 812.201,364.153 816.618,367.522 C 817.798,368.422 818.978,369.323 820.158,370.223 C 821.048,369.396 821.939,368.568 822.829,367.741 C 824.298,366.376 826.737,364.473 828.250,363.514 C 831.122,361.692 831.611,359.660 830.104,355.797 C 827.255,348.492 826.621,344.853 828.042,343.974 C 830.224,342.626 832.690,345.541 834.005,351.021 C 834.646,353.691 836.534,358.026 838.201,360.655 C 840.009,363.507 841.518,367.539 841.940,370.652 C 842.675,376.069 844.297,379 846.563,379 C 849.192,379 848.981,377.032 845.882,372.635 C 841.015,365.730 840.455,353 845.019,353 C 846.109,353 847.034,353.337 847.075,353.750 C 847.116,354.163 847.259,356.990 847.391,360.033 C 847.645,365.883 849.877,370.817 853.212,372.900 C 854.859,373.929 855.528,373.832 857.198,372.321 C 862.376,367.635 863.356,360.756 859.703,354.722 ZM 838.526,378.638 C 837.750,377.614 836.813,374.352 836.443,371.388 C 836.073,368.425 835.363,366 834.865,366 C 831.840,366 826.079,371.318 823.587,376.411 C 821.654,380.362 820.279,382 818.895,382 C 816.434,382 815.379,379.454 817.020,377.476 C 818.064,376.218 817.177,374.976 811.488,369.738 C 807.761,366.307 804.405,363.377 804.032,363.226 C 802.738,362.703 800.782,379.032 801.968,380.461 C 804.684,383.733 820.220,385.601 831.455,384.006 C 840.217,382.762 841.127,382.072 838.526,378.638 Z" fill="#313131" stroke="none" />
  <path id="11" d="M 751.471,233.094 C 752.968,233.888 754.464,234.682 755.961,235.476 C 755.754,237.313 755.549,239.151 755.342,240.988 C 755.001,244.020 754.577,246.670 754.399,246.878 C 754.221,247.086 752.060,246.749 749.595,246.128 C 744.028,244.726 740.579,244.712 735.695,246.068 C 731.719,247.172 730.003,249.403 731.771,251.171 C 732.486,251.886 734.357,251.875 737.807,251.135 C 741.623,250.317 744.019,250.377 747.930,251.392 C 750.748,252.123 753.313,252.980 753.628,253.295 C 754.698,254.365 751.047,273.830 748.020,283.187 C 743.915,295.878 738.188,305.743 729.796,314.578 C 710.269,335.135 687.702,333.593 665.239,310.167 C 658.550,303.191 657.850,302.722 656.360,304.212 C 654.870,305.702 654.909,306.065 656.864,308.810 C 658.031,310.449 662.321,314.904 666.397,318.710 C 674.563,326.336 683.685,331.410 692.586,333.277 C 694.471,333.672 696.357,334.069 698.242,334.464 C 698.093,337.822 697.942,341.180 697.793,344.538 C 697.433,352.633 696.896,355.414 695.055,358.689 C 691.763,364.546 686.215,367.387 678.014,367.416 C 665.913,367.458 659.939,363.801 654.514,353.028 C 647.231,338.566 645.336,321.225 646.956,283.858 C 648.599,245.968 649.204,237.847 650.406,237.524 C 651.008,237.362 655.700,236.686 660.833,236.021 C 673.985,234.317 686.911,230.643 697.643,225.559 C 709.039,220.161 714.603,216.376 721.609,209.258 C 724.605,206.214 727.156,203.897 727.278,204.111 C 727.400,204.325 728.850,207.176 730.500,210.447 C 734.187,217.756 745.415,229.881 751.471,233.094 ZM 680.250,245.226 C 679.562,245.786 679,246.585 679,247 C 679,249.351 681.809,249.731 687.736,248.181 C 693.604,246.647 694.392,246.658 701.080,248.381 C 708.367,250.258 710.890,249.763 709.710,246.688 C 708.910,244.604 700.490,241.999 694.572,242.006 C 689.160,242.012 682.303,243.553 680.250,245.226 ZM 692.829,255.655 C 690.586,257.684 690.511,259.369 692.571,261.429 C 695.591,264.449 700,262.711 700,258.500 C 700,254.243 696.099,252.695 692.829,255.655 ZM 699.913,299.553 C 699.348,299.902 699.024,301.148 699.193,302.320 C 699.758,306.240 712.418,309.334 719.802,307.356 C 721.437,306.918 722.017,306.125 721.802,304.620 C 721.527,302.696 720.854,302.496 714.500,302.458 C 709.820,302.430 706.414,301.836 704.221,300.667 C 702.417,299.705 700.478,299.204 699.913,299.553 ZM 711.899,284.562 C 711.404,284.868 711,285.751 711,286.524 C 711,290.771 722.938,291.030 726.317,286.857 C 728.047,284.720 728.150,283.424 727.492,272.022 C 726.722,258.673 725.889,255 723.632,255 C 721.281,255 721.044,257.382 722.128,270.082 C 722.850,278.542 722.846,282.554 722.117,283.283 C 721.541,283.859 719.208,284.258 716.934,284.169 C 714.660,284.080 712.394,284.256 711.899,284.562 ZM 739.433,258.452 C 735.455,261.058 736.809,266 741.500,266 C 745.987,266 747.795,260.031 743.933,257.964 C 742.325,257.103 741.326,257.212 739.433,258.452 Z" fill="#FFFFFF" stroke="none" />
  <path id="14" d="M 799,337 C 797.675,335.182 792.534,337.372 785.505,342.747 C 778.965,347.748 777.320,350.331 775.478,358.500 C 775.102,360.167 774.726,361.833 774.350,363.500 C 772.382,363.748 770.415,363.995 768.447,364.243 C 764.572,364.730 760.853,366.036 757.623,368.044 C 751.993,371.544 750.432,370.970 751.749,365.886 C 752.575,362.696 752.883,362.495 757.063,362.423 C 761.140,362.352 761.577,362.093 762.445,359.217 C 763.206,356.695 763.035,355.696 761.563,354.069 C 759.944,352.280 759.886,351.680 761.059,348.776 C 762.902,344.214 766.078,341.037 768.817,341.017 C 770.702,341.003 771.150,340.440 771.219,338 C 771.289,335.543 771.729,335 773.652,335 C 775.134,335 776,334.412 776,333.406 C 776,332.530 776.956,331.563 778.125,331.257 C 779.595,330.873 780.250,329.911 780.250,328.136 C 780.250,325.790 780.452,325.666 782.615,326.687 C 784.557,327.603 785.427,327.452 787.469,325.846 C 788.966,324.668 789.865,323.031 789.728,321.734 C 789.350,318.173 798.809,314.549 803.374,316.506 C 804.687,317.069 805.526,316.812 806.177,315.649 C 806.809,314.521 807.855,314.176 809.444,314.575 C 810.730,314.898 812.083,314.676 812.450,314.081 C 813.361,312.607 816.718,312.715 817.700,314.250 C 818.882,316.097 823,315.979 823,314.098 C 823,312.718 823.319,312.735 825.750,314.242 C 827.263,315.180 830.323,315.958 832.550,315.973 C 834.778,315.988 837.159,316.559 837.842,317.242 C 838.831,318.231 839.255,318.206 839.925,317.122 C 840.634,315.974 840.902,315.975 841.633,317.130 C 842.110,317.883 843.513,319.066 844.750,319.758 C 845.500,320.177 846.250,320.598 847,321.017 C 847.687,320.598 848.374,320.177 849.061,319.758 C 850.774,318.712 851.323,318.764 852.311,320.062 C 852.965,320.921 854.287,321.920 855.250,322.281 C 856.213,322.642 857,323.900 857,325.077 C 857,326.824 857.431,327.108 859.353,326.626 C 861.161,326.172 862.608,326.900 865.603,329.768 C 867.746,331.821 870.175,335.007 871,336.849 C 871.883,338.819 873.323,340.296 874.500,340.436 C 875.739,340.583 876.891,341.848 877.526,343.760 C 878.090,345.458 879.270,347.669 880.149,348.674 C 881.028,349.679 882.041,352.143 882.400,354.150 C 882.759,356.157 883.626,358.275 884.326,358.856 C 885.026,359.437 885.600,361.590 885.600,363.639 C 885.600,366.156 885.967,367.138 886.731,366.666 C 887.353,366.282 888.187,366.492 888.583,367.134 C 889.738,369.002 889.893,381.379 888.779,382.745 C 888.221,383.430 888.013,384.944 888.318,386.110 C 888.623,387.276 888.359,389.053 887.731,390.059 C 886.814,391.528 886.973,392.318 888.544,394.073 C 889.929,395.620 890.190,396.573 889.438,397.340 C 888.680,398.114 888.182,397.916 887.695,396.648 C 886.728,394.129 884.720,395.752 885.409,398.495 C 885.754,399.870 885.408,401.246 884.535,401.971 C 883.386,402.925 883.332,403.559 884.273,405.065 C 885.215,406.573 885.130,407.524 883.860,409.729 C 882.983,411.253 882.478,413.092 882.738,413.816 C 883.008,414.568 882.270,415.378 881.016,415.706 C 879.279,416.160 878.924,416.822 879.317,418.879 C 879.891,421.882 878.520,425 876.625,425 C 875.908,425 874.826,426.086 874.221,427.413 C 873.616,428.740 872.307,430.090 871.311,430.411 C 870.315,430.732 868.709,432.389 867.742,434.093 C 866.775,435.797 865.153,437.409 864.138,437.674 C 863.123,437.939 860.629,440.146 858.596,442.578 C 856.563,445.010 854.243,447 853.440,447 C 852.637,447 851.210,447.900 850.268,449 C 849.282,450.152 847.318,451 845.638,451 C 844.033,451 842.173,451.749 841.503,452.665 C 840.728,453.725 838.574,454.427 835.579,454.596 C 832.990,454.742 830.336,455.307 829.680,455.851 C 828.287,457.007 817.181,457.101 816.477,455.962 C 816.214,455.536 815.140,455.412 814.091,455.686 C 812.955,455.983 811.324,455.324 810.056,454.056 C 808.222,452.222 807.434,452.062 804.378,452.906 C 802.181,453.513 799.910,453.536 798.415,452.968 C 796.160,452.111 796,451.556 796,444.596 C 796,436.431 794.736,434 790.488,434 C 787.307,434 786.631,435.399 786.795,441.644 C 786.932,446.835 785.563,449.630 784.386,446.563 C 784.056,445.703 783.129,445 782.326,445 C 781.523,445 779.380,443.425 777.565,441.500 C 775.750,439.575 773.599,438 772.787,438 C 768.202,438 766.419,428.744 769.750,422.236 C 770.333,421.096 770.917,419.957 771.500,418.817 C 773.833,419.375 776.167,419.934 778.500,420.492 C 783.568,421.704 785.845,421.867 786.750,421.083 C 787.167,420.722 787.583,420.361 788,420 C 790.144,421.968 792.289,423.935 794.433,425.903 C 802.124,432.961 809.230,435.963 820.050,436.726 C 836.241,437.868 850.356,430.113 857.388,416.213 C 863.272,404.582 866.990,386.008 866.996,368.210 C 867.001,355.052 865.709,351.474 858.822,345.579 C 845.656,334.310 823.584,331.145 799,337 Z" fill="#F2ECE7" stroke="none" />
  <path id="11" d="M 549.898,388.472 C 552.158,387.812 552.259,387.958 551.648,391.011 C 551.292,392.793 551,425.694 551,464.125 C 551,487.417 551,510.708 551,534 C 547,534 543,534 539,534 C 535,534 531,534 527,534 C 527.008,514.083 527.016,494.167 527.024,474.250 C 527.032,454.333 527.039,434.417 527.047,414.500 C 527.812,412.640 528.578,410.780 529.343,408.920 C 530.605,405.851 532.869,401.727 534.373,399.755 C 537.302,395.915 545.959,389.623 549.898,388.472 Z" fill="#FFFFFF" stroke="none" />
  <path id="11" d="M 857.046,379.466 C 859.771,377.466 861.998,376.206 861.996,376.665 C 861.980,379.988 858.664,396.880 856.913,402.558 C 853.726,412.892 850.681,418.202 845.026,423.287 C 837.336,430.201 826.870,432.971 815.930,430.987 C 807.595,429.476 802.723,426.872 796.933,420.833 C 792.672,416.388 791.436,415.709 785.332,414.449 C 773.990,412.108 770,410.250 770,407.310 C 770,405.284 770.345,404.936 771.750,405.544 C 776.165,407.455 784.796,409.292 786.423,408.668 C 788.436,407.895 788.508,408.757 784.958,391 C 783.694,384.675 782.278,378.994 781.811,378.375 C 780.441,376.557 773.347,375.883 768.480,377.109 C 765.712,377.806 763.052,379.338 761.588,381.078 C 759.374,383.709 754,386.129 754,384.495 C 754,384.098 754.953,382.077 756.118,380.004 C 759.236,374.456 764.882,371.658 773.140,371.571 C 779.807,371.500 779.905,371.539 783.360,375.570 C 785.279,377.809 789.470,381.029 792.674,382.725 C 812.701,393.328 840.049,391.943 857.046,379.466 Z" fill="#FFFFFF" stroke="none" />
  <path id="11" d="M 769.415,388.329 C 770.364,388.693 771,390.115 771,391.870 C 771,394.145 770.238,395.252 767.598,396.810 C 763.969,398.951 763.850,399.397 762.608,415.500 C 761.934,424.234 760.144,430.387 757.631,432.596 C 754.965,434.941 749.267,436.217 731.052,438.555 C 718.233,440.200 715.350,441.153 710.297,445.404 C 709.316,446.229 708.335,447.055 707.354,447.880 C 704.545,444.836 701.736,441.793 698.927,438.749 C 694.292,433.727 689.631,428.517 688.569,427.171 C 687.925,426.355 687.282,425.540 686.638,424.724 C 688.872,422.687 691.106,420.649 693.340,418.612 C 697.026,415.250 703.745,407.600 708.271,401.611 C 719.403,386.880 724.065,383.630 738.217,380.734 C 744.084,379.533 749.161,378.828 749.500,379.167 C 749.839,379.506 749.464,381.348 748.665,383.259 C 747.311,386.499 746.761,386.819 740.526,387.995 C 733.823,389.260 731.616,391.016 733.882,393.282 C 734.745,394.145 739.092,393.598 751.429,391.075 C 760.449,389.230 768.543,387.994 769.415,388.329 Z" fill="#FFFFFF" stroke="none" />
  <path id="46" d="M 773.438,559.628 C 777.561,555.505 784.420,552.801 798.221,549.857 C 813.143,546.674 841.928,546.693 857,549.896 C 875.405,553.807 884.400,559.314 884.400,566.671 C 884.400,573.273 875.418,578.797 858.500,582.601 C 848.933,584.752 818.749,585.593 806.493,584.050 C 789.825,581.952 777.288,577.508 772.717,572.076 C 768.943,567.591 769.156,563.910 773.438,559.628 ZM 878.481,564.277 C 876.605,561.599 866.444,557.193 858.154,555.465 C 840.848,551.857 813.717,551.653 798.303,555.016 C 785.075,557.902 775,562.915 775,566.611 C 775,568.957 783.536,573.658 791.790,575.856 C 804.492,579.239 816.104,580.304 834,579.724 C 852.318,579.131 866.425,576.285 874.495,571.556 C 879.463,568.645 880.374,566.980 878.481,564.277 Z" fill="#313131" stroke="none" />
  <path id="11" d="M 536.618,387 C 537.799,387 538.980,387 540.161,387 C 538.309,388.693 536.457,390.385 534.605,392.078 C 528.333,397.810 523.589,406.396 522.005,414.886 C 521.406,418.094 521,443.267 521,477.136 C 521,496.091 521,515.045 521,534 C 518.500,534 516,534 513.500,534 C 507.030,534 505.998,533.760 505.985,532.250 C 505.977,531.287 505.983,503.991 506,471.591 C 506.010,451.955 506.021,432.318 506.031,412.682 C 506.911,410.721 507.790,408.760 508.670,406.799 C 513.414,396.227 526.440,387 536.618,387 Z" fill="#FFFFFF" stroke="none" />
  <path id="11" d="M 756.296,222 C 757.008,228.488 757.002,228.881 756.183,229.387 C 754.888,230.188 744.525,221.568 740.595,216.421 C 737.146,211.903 733.787,205.621 730.614,197.750 C 729.782,195.688 728.479,194 727.717,194 C 726.955,194 724.581,196.543 722.440,199.652 C 712.352,214.299 690.283,225.922 664.074,230.392 C 650.597,232.690 649.814,232.624 650.616,229.250 C 655.207,209.944 668.484,191.291 682.740,184.120 C 703.540,173.657 727,176.958 741.866,192.439 C 749.656,200.551 755.185,211.877 756.296,222 Z" fill="#FFFFFF" stroke="none" />
  <path id="11" d="M 878.481,564.277 C 880.374,566.980 879.463,568.645 874.495,571.556 C 866.425,576.285 852.318,579.131 834,579.724 C 816.104,580.304 804.492,579.239 791.790,575.856 C 783.536,573.658 775,568.957 775,566.611 C 775,562.915 785.075,557.902 798.303,555.016 C 813.717,551.653 840.848,551.857 858.154,555.465 C 866.444,557.193 876.605,561.599 878.481,564.277 ZM 800.905,562.586 C 796.501,566.572 799.527,571.265 807.930,573.482 C 832.483,579.959 866.232,571.422 853.084,562.060 C 843.577,555.291 808.576,555.644 800.905,562.586 Z" fill="#FFFFFF" stroke="none" />
  <path id="11" d="M 753.004,285.167 C 755.650,277.220 755.896,276.832 755.967,280.500 C 756.066,285.621 752.788,352.384 752.414,352.850 C 752.259,353.043 749.291,352.494 745.817,351.632 C 742.343,350.770 732.300,349.142 723.500,348.014 C 700.970,345.127 702.842,345.881 703.199,339.845 C 703.299,338.148 703.400,336.450 703.500,334.753 C 705.667,334.209 707.833,333.664 710,333.120 C 728.835,328.388 744.387,311.046 753.004,285.167 Z" fill="#FFFFFF" stroke="none" />
  <path id="46" d="M 724.912,573.861 C 726.526,571.868 727.733,571.500 732.662,571.500 C 737.703,571.500 741.644,572.765 761.512,580.760 C 769.183,583.847 776.854,586.933 784.525,590.020 C 787.854,590.113 791.183,590.207 794.512,590.300 C 803.071,590.540 805.238,590.963 809.662,593.262 C 824.952,601.208 820.716,614 802.794,614 C 795.236,614 787.744,610.636 782.792,605.020 C 781.362,603.398 779.930,601.774 778.500,600.152 C 770.526,597.772 762.551,595.392 754.577,593.012 C 729.013,585.382 725.639,584.061 724.030,581.055 C 722.539,578.269 722.752,576.528 724.912,573.861 ZM 783,596 C 788.385,604.573 793.126,607.848 801.385,608.700 C 807.055,609.285 814,607.097 814,604.725 C 814,602.980 810.515,599.774 806,597.368 C 803.215,595.884 800.712,595.553 793.750,595.751 C 790.833,595.834 787.917,595.917 785,596 C 742.719,578.780 736.566,576.693 733.250,576.828 C 731.833,576.885 730.417,576.943 729,577 C 731.251,580.033 735.068,581.809 739.190,583.012 C 743.211,584.185 754.713,587.587 764.750,590.572 C 770.833,592.381 776.917,594.191 783,596 Z" fill="#313131" stroke="none" />
  <path id="11" d="M 859.703,354.722 C 863.356,360.756 862.376,367.635 857.198,372.321 C 855.528,373.832 854.859,373.929 853.212,372.900 C 849.877,370.817 847.645,365.883 847.391,360.033 C 847.259,356.990 847.116,354.163 847.075,353.750 C 847.034,353.337 846.109,353 845.019,353 C 840.455,353 841.015,365.730 845.882,372.635 C 848.981,377.032 849.192,379 846.563,379 C 844.297,379 842.675,376.069 841.940,370.652 C 841.518,367.539 840.009,363.507 838.201,360.655 C 836.534,358.026 834.646,353.691 834.005,351.021 C 832.690,345.541 830.224,342.626 828.042,343.974 C 826.621,344.853 827.255,348.492 830.104,355.797 C 831.611,359.660 831.122,361.692 828.250,363.514 C 826.737,364.473 824.298,366.376 822.829,367.741 C 821.939,368.568 821.048,369.396 820.158,370.223 C 818.978,369.323 817.798,368.422 816.618,367.522 C 812.201,364.153 811.623,362.345 812.461,354.521 C 813.016,349.338 812.835,347.978 811.401,346.544 C 809.472,344.615 804.515,345.056 802.209,347.362 C 800.807,348.764 799.058,356.298 797.011,369.750 C 795.735,378.135 795.169,379.113 793.063,376.576 C 792.137,375.461 792.302,374.323 793.823,371.326 C 794.972,369.062 796.059,364.135 796.486,359.258 C 797.115,352.065 796.994,350.934 795.536,350.375 C 792.945,349.381 792.159,350.937 791.430,358.500 C 790.748,365.577 788.560,372 786.830,372 C 786.312,372 784.992,369.976 783.898,367.502 C 781.277,361.577 782.125,357.276 787.006,351.730 C 802.780,333.810 848.174,335.678 859.703,354.722 ZM 819.567,356.336 C 818.705,356.667 818,357.415 818,358 C 818,359.620 820.987,360.413 822.267,359.133 C 822.645,358.755 823.022,358.378 823.400,358 C 823.022,357.622 822.645,357.245 822.267,356.867 C 821.644,356.244 820.429,356.005 819.567,356.336 ZM 852.493,361.364 C 850.407,362.165 850.963,365.369 853.265,365.812 C 855.332,366.210 856.724,363.324 855.200,361.800 C 854.614,361.214 853.396,361.018 852.493,361.364 Z" fill="#FFFFFF" stroke="none" />
  <path id="11" d="M 838.526,378.638 C 841.127,382.072 840.217,382.762 831.455,384.006 C 820.220,385.601 804.684,383.733 801.968,380.461 C 800.782,379.032 802.738,362.703 804.032,363.226 C 804.405,363.377 807.761,366.307 811.488,369.738 C 817.177,374.976 818.064,376.218 817.020,377.476 C 815.379,379.454 816.434,382 818.895,382 C 820.279,382 821.654,380.362 823.587,376.411 C 826.079,371.318 831.840,366 834.865,366 C 835.363,366 836.073,368.425 836.443,371.388 C 836.813,374.352 837.750,377.614 838.526,378.638 ZM 807.087,374.446 C 806.489,374.816 806,375.515 806,376 C 806,377.545 808.133,378.267 809.287,377.113 C 809.658,376.742 810.029,376.371 810.400,376 C 810.029,375.629 809.658,375.258 809.287,374.887 C 808.675,374.275 807.685,374.076 807.087,374.446 ZM 829.567,375.336 C 828.705,375.667 828,376.415 828,377 C 828,378.620 830.987,379.413 832.267,378.133 C 832.645,377.755 833.022,377.378 833.400,377 C 833.022,376.622 832.645,376.245 832.267,375.867 C 831.644,375.244 830.429,375.005 829.567,375.336 Z" fill="#FFFFFF" stroke="none" />
  <path id="46" d="M 800.905,562.586 C 808.576,555.644 843.577,555.291 853.084,562.060 C 866.232,571.422 832.483,579.959 807.930,573.482 C 799.527,571.265 796.501,566.572 800.905,562.586 ZM 848.144,565.077 C 842.147,561.868 820.641,561.293 809.710,564.050 C 799.355,566.662 808.438,569.799 826.701,569.919 C 843.414,570.029 853.248,567.809 848.144,565.077 Z" fill="#313131" stroke="none" />
  <path id="46" d="M 879.518,292.775 C 881.414,289.373 883.916,288 888.212,288 C 892.565,288 895.578,290.192 896.953,294.359 C 898.322,298.506 897.178,301.929 893.440,304.869 C 889.710,307.803 885.672,307.584 882.013,304.250 C 878.390,300.949 877.428,296.524 879.518,292.775 ZM 890.800,294.200 C 890.140,293.540 888.880,293 888,293 C 883.998,293 882.470,299.111 886,301 C 886.667,301.357 887.333,301.713 888,302.070 C 888.667,301.713 889.333,301.357 890,301 C 892.218,299.813 892.659,296.059 890.800,294.200 Z" fill="#313131" stroke="none" />
  <path id="11" d="M 783,596 C 783.667,596 784.333,596 785,596 C 787.917,595.917 790.833,595.834 793.750,595.751 C 800.712,595.553 803.215,595.884 806,597.368 C 810.515,599.774 814,602.980 814,604.725 C 814,607.097 807.055,609.285 801.385,608.700 C 793.126,607.848 788.385,604.573 783,596 Z" fill="#FFFFFF" stroke="none" />
  <path id="46" d="M 711.899,284.562 C 712.394,284.256 714.660,284.080 716.934,284.169 C 719.208,284.258 721.541,283.859 722.117,283.283 C 722.846,282.554 722.850,278.542 722.128,270.082 C 721.044,257.382 721.281,255 723.632,255 C 725.889,255 726.722,258.673 727.492,272.022 C 728.150,283.424 728.047,284.720 726.317,286.857 C 722.938,291.030 711,290.771 711,286.524 C 711,285.751 711.404,284.868 711.899,284.562 Z" fill="#313131" stroke="none" />
  <path id="14" d="M 785,596 C 784.333,596 783.667,596 783,596 C 776.917,594.191 770.833,592.381 764.750,590.572 C 754.713,587.587 743.211,584.185 739.190,583.012 C 735.068,581.809 731.251,580.033 729,577 C 730.417,576.943 731.833,576.885 733.250,576.828 C 736.566,576.693 742.719,578.780 785,596 Z" fill="#F2ECE7" stroke="none" />
  <path id="46" d="M 680.250,245.226 C 682.303,243.553 689.160,242.012 694.572,242.006 C 700.490,241.999 708.910,244.604 709.710,246.688 C 710.890,249.763 708.367,250.258 701.080,248.381 C 694.392,246.658 693.604,246.647 687.736,248.181 C 681.809,249.731 679,249.351 679,247 C 679,246.585 679.562,245.786 680.250,245.226 Z" fill="#313131" stroke="none" />
  <path id="11" d="M 848.144,565.077 C 853.248,567.809 843.414,570.029 826.701,569.919 C 808.438,569.799 799.355,566.662 809.710,564.050 C 820.641,561.293 842.147,561.868 848.144,565.077 Z" fill="#FFFFFF" stroke="none" />
  <path id="46" d="M 699.913,299.553 C 700.478,299.204 702.417,299.705 704.221,300.667 C 706.414,301.836 709.820,302.430 714.500,302.458 C 720.854,302.496 721.527,302.696 721.802,304.620 C 722.017,306.125 721.437,306.918 719.802,307.356 C 712.418,309.334 699.758,306.240 699.193,302.320 C 699.024,301.148 699.348,299.902 699.913,299.553 Z" fill="#313131" stroke="none" />
  <path id="11" d="M 781.365,400.470 C 782.095,402.424 780.364,403.023 777.187,401.915 C 773.685,400.694 773.313,399.492 775.532,396.559 C 777.723,393.662 777.311,389.523 774.500,386.182 C 771.323,382.406 771.360,381.794 774.739,382.184 C 777.320,382.482 777.579,382.987 779.229,390.970 C 780.192,395.628 781.153,399.903 781.365,400.470 Z" fill="#FFFFFF" stroke="none" />
  <path id="44" d="M 887.621,474.713 C 888.013,474.321 889.159,474 890.167,474 C 891.725,474 892,474.836 892,479.570 C 892,484.774 891.852,485.119 889.750,484.820 C 887.848,484.550 887.454,483.799 887.204,479.963 C 887.041,477.468 887.229,475.105 887.621,474.713 Z" fill="#313131" stroke="none" />
  <path id="46" d="M 825.621,236.713 C 826.013,236.321 827.159,236 828.167,236 C 829.725,236 830,236.836 830,241.570 C 830,246.774 829.852,247.119 827.750,246.820 C 825.848,246.550 825.454,245.799 825.204,241.963 C 825.041,239.468 825.229,237.105 825.621,236.713 Z" fill="#313131" stroke="none" />
  <path id="46" d="M 894.632,467.701 C 895.018,467.315 897.539,467 900.236,467 C 904.749,467 905.114,467.179 904.820,469.250 C 904.537,471.240 903.924,471.500 899.514,471.500 C 895.807,471.500 894.451,471.102 894.229,469.951 C 894.065,469.099 894.246,468.087 894.632,467.701 Z" fill="#313131" stroke="none" />
  <path id="44" d="M 835.667,266.667 C 836.834,265.500 837.845,265.926 841.465,269.104 C 845.263,272.438 845.942,274.702 843.434,275.664 C 842.455,276.040 840.581,275.017 838.434,272.936 C 835.070,269.676 834.332,268.002 835.667,266.667 Z" fill="#313131" stroke="none" />
  <path id="11" d="M 890.800,294.200 C 892.659,296.059 892.218,299.813 890,301 C 889.333,301.357 888.667,301.713 888,302.070 C 887.333,301.713 886.667,301.357 886,301 C 882.470,299.111 883.998,293 888,293 C 888.880,293 890.140,293.540 890.800,294.200 Z" fill="#FFFFFF" stroke="none" />
  <path id="46" d="M 837.974,245.027 C 840.928,241.865 843.940,241.317 844.764,243.791 C 845,244.501 843.527,246.653 841.490,248.574 C 838.558,251.339 837.496,251.826 836.393,250.911 C 834.433,249.284 834.609,248.629 837.974,245.027 Z" fill="#313131" stroke="none" />
  <path id="44" d="M 805.188,257.212 C 806.469,255.931 811.754,255.585 814.418,256.607 C 815.288,256.941 816,258.088 816,259.157 C 816,260.888 815.381,261.067 810.329,260.800 C 804.569,260.495 803,259.400 805.188,257.212 Z" fill="#313131" stroke="none" />
  <path id="44" d="M 826.408,271.076 C 828.869,269.034 830,270.783 830,276.629 C 830,281.772 829.850,282.118 827.750,281.820 C 825.844,281.549 825.455,280.799 825.202,276.912 C 824.997,273.756 825.373,271.935 826.408,271.076 Z" fill="#313131" stroke="none" />
  <path id="46" d="M 888.512,454.357 C 891.040,453.387 892.156,455.333 891.814,460.114 C 891.555,463.728 891.148,464.500 889.500,464.500 C 887.823,464.500 887.451,463.732 887.195,459.740 C 886.960,456.080 887.265,454.836 888.512,454.357 Z" fill="#313131" stroke="none" />
  <path id="46" d="M 692.829,255.655 C 696.099,252.695 700,254.243 700,258.500 C 700,262.711 695.591,264.449 692.571,261.429 C 690.511,259.369 690.586,257.684 692.829,255.655 Z" fill="#313131" stroke="none" />
  <path id="46" d="M 874.632,467.701 C 875.995,466.338 884.760,466.932 885.334,468.427 C 886.215,470.722 883.479,472.146 878.833,471.811 C 874.712,471.514 872.744,469.589 874.632,467.701 Z" fill="#313131" stroke="none" />
  <path id="44" d="M 813.521,269.415 C 817.406,265.750 819.266,265.462 819.842,268.432 C 820.305,270.822 815.058,276.156 812.603,275.790 C 809.315,275.300 809.634,273.080 813.521,269.415 Z" fill="#313131" stroke="none" />
  <path id="47" d="M 791.636,300.309 C 793.792,299.482 796.500,301.259 796.500,303.500 C 796.500,304.480 795.774,305.740 794.886,306.300 C 792.464,307.828 790,306.416 790,303.500 C 790,302.050 790.710,300.664 791.636,300.309 Z" fill="#838280" stroke="none" />
  <path id="46" d="M 913.636,404.309 C 915.792,403.482 918.500,405.259 918.500,407.500 C 918.500,408.480 917.774,409.740 916.886,410.300 C 914.464,411.828 912,410.416 912,407.500 C 912,406.050 912.710,404.664 913.636,404.309 Z" fill="#313131" stroke="none" />
  <path id="46" d="M 810.729,243.250 C 811.466,241.142 814.487,241.855 817.313,244.805 C 821.879,249.571 820.221,253.892 815.309,250.028 C 811.866,247.319 810.179,244.823 810.729,243.250 Z" fill="#313131" stroke="none" />
  <path id="46" d="M 739.433,258.452 C 741.326,257.212 742.325,257.103 743.933,257.964 C 747.795,260.031 745.987,266 741.500,266 C 736.809,266 735.455,261.058 739.433,258.452 Z" fill="#313131" stroke="none" />
  <path id="46" d="M 879.625,245.709 C 881.174,244.160 884.877,245.040 885.535,247.112 C 886.470,250.058 883.624,252.881 881.231,251.381 C 879.389,250.227 878.445,246.889 879.625,245.709 Z" fill="#313131" stroke="none" />
  <path id="44" d="M 840.533,256.626 C 845.499,254.720 853.006,257.394 850.297,260.103 C 848.617,261.783 839.572,260.782 839.210,258.876 C 839.041,257.983 839.636,256.970 840.533,256.626 Z" fill="#313131" stroke="none" />
  <path id="46" d="M 831.452,493.040 C 833.966,490.953 836.500,492.195 836.500,495.514 C 836.500,497.901 836.021,498.567 834.113,498.837 C 830.434,499.357 828.615,495.395 831.452,493.040 Z" fill="#313131" stroke="none" />
  <path id="46" d="M 819.567,356.336 C 820.429,356.005 821.644,356.244 822.267,356.867 C 822.645,357.245 823.022,357.622 823.400,358 C 823.022,358.378 822.645,358.755 822.267,359.133 C 820.987,360.413 818,359.620 818,358 C 818,357.415 818.705,356.667 819.567,356.336 Z" fill="#313131" stroke="none" />
  <path id="46" d="M 829.567,375.336 C 830.429,375.005 831.644,375.244 832.267,375.867 C 832.645,376.245 833.022,376.622 833.400,377 C 833.022,377.378 832.645,377.755 832.267,378.133 C 830.987,379.413 828,378.620 828,377 C 828,376.415 828.705,375.667 829.567,375.336 Z" fill="#313131" stroke="none" />
  <path id="46" d="M 807.087,374.446 C 807.685,374.076 808.675,374.275 809.287,374.887 C 809.658,375.258 810.029,375.629 810.400,376 C 810.029,376.371 809.658,376.742 809.287,377.113 C 808.133,378.267 806,377.545 806,376 C 806,375.515 806.489,374.816 807.087,374.446 Z" fill="#313131" stroke="none" />
  <path id="46" d="M 852.493,361.364 C 853.396,361.018 854.614,361.214 855.200,361.800 C 856.724,363.324 855.332,366.210 853.265,365.812 C 850.963,365.369 850.407,362.165 852.493,361.364 Z" fill="#313131" stroke="none" />
</svg>
