<svg width="1200" height="700" viewBox="0 0 1200 700" xmlns="http://www.w3.org/2000/svg">
  <defs>
    <linearGradient id="bg" x1="0" y1="0" x2="1" y2="1">
      <stop offset="0%" stop-color="#09111b"/>
      <stop offset="52%" stop-color="#152435"/>
      <stop offset="100%" stop-color="#203347"/>
    </linearGradient>
    <radialGradient id="ringGlow" cx="58%" cy="46%" r="38%">
      <stop offset="0%" stop-color="#36d5ff" stop-opacity="0.2"/>
      <stop offset="100%" stop-color="#36d5ff" stop-opacity="0"/>
    </radialGradient>
  </defs>
  <rect width="1200" height="700" fill="url(#bg)"/>
  <rect width="1200" height="700" fill="url(#ringGlow)"/>

  <g transform="translate(292 92)">
    <rect x="0" y="0" width="280" height="510" rx="18" fill="#dde8f7"/>
    <rect x="20" y="20" width="240" height="470" rx="14" fill="#122235"/>
    <circle cx="140" cy="98" r="35" fill="none" stroke="#36d5ff" stroke-width="8"/>
    <path d="M140 166l23 40h-46z" fill="#ff7d51"/>
    <rect x="83" y="246" width="114" height="114" rx="57" fill="none" stroke="#36d5ff" stroke-width="9"/>
  </g>
  <g transform="translate(624 92)">
    <rect x="0" y="0" width="280" height="510" rx="18" fill="#dde8f7"/>
    <rect x="20" y="20" width="240" height="470" rx="14" fill="#16283d"/>
    <path d="M140 90l64 95H76z" fill="#ff7d51"/>
    <circle cx="140" cy="280" r="65" fill="none" stroke="#36d5ff" stroke-width="10"/>
    <path d="M140 365l46 66H94z" fill="#ff7d51"/>
  </g>

  <circle cx="178" cy="116" r="58" fill="#ff7d51" fill-opacity="0.11"/>
  <circle cx="1040" cy="560" r="96" fill="#36d5ff" fill-opacity="0.11"/>
</svg>
